<?xml version="1.0" encoding="utf-8"?>
<!-- Generator: Adobe Illustrator 26.0.1, SVG Export Plug-In . SVG Version: 6.00 Build 0)  -->
<svg version="1.1" id="Layer_1" xmlns="http://www.w3.org/2000/svg" xmlns:xlink="http://www.w3.org/1999/xlink" x="0px" y="0px"
	 viewBox="0 0 301.93 244.9" style="enable-background:new 0 0 301.93 244.9;" xml:space="preserve">
<style type="text/css">
	.st0{fill:#FFFFFF;}
</style>
<g>
	<g>
		<g>
			<path class="st0" d="M202.26,98.73l-1.52-5.95l-1.51,5.95h-1.96l-2.48-8.67h2.07l1.52,6.27l1.65-6.27h1.44l1.64,6.27l1.51-6.27
				h2.08l-2.47,8.67H202.26z"/>
			<path class="st0" d="M207.36,90.54c0-0.55,0.46-0.99,0.99-0.99c0.55,0,0.99,0.44,0.99,0.99s-0.44,0.99-0.99,0.99
				C207.82,91.53,207.36,91.09,207.36,90.54z M207.53,98.73v-6.28h1.65v6.28H207.53z"/>
			<path class="st0" d="M211.14,97.17V93.9h-1.04v-1.44h1.04v-1.72h1.66v1.72h1.27v1.44h-1.27v2.83c0,0.39,0.21,0.69,0.57,0.69
				c0.25,0,0.48-0.09,0.57-0.18l0.35,1.25c-0.25,0.22-0.69,0.4-1.38,0.4C211.77,98.89,211.14,98.29,211.14,97.17z"/>
			<path class="st0" d="M219.46,98.73v-3.82c0-0.87-0.46-1.14-1.17-1.14c-0.64,0-1.14,0.36-1.43,0.74v4.23h-1.65v-8.67h1.65v3.21
				c0.4-0.48,1.18-0.98,2.21-0.98c1.38,0,2.04,0.75,2.04,1.98v4.46H219.46z"/>
		</g>
		<g>
			<path class="st0" d="M118.77,144.79c2.63,0,4.54,1.87,4.54,4.49s-1.91,4.49-4.54,4.49c-2.61,0-4.52-1.87-4.52-4.49
				S116.16,144.79,118.77,144.79z M118.77,146.42c-1.6,0-2.63,1.22-2.63,2.85c0,1.61,1.03,2.85,2.63,2.85c1.6,0,2.64-1.24,2.64-2.85
				C121.41,147.65,120.37,146.42,118.77,146.42z"/>
			<path class="st0" d="M126.6,148.76v4.84h-1.66v-4.84h-1.04v-1.44h1.04v-0.34c0-1.37,0.88-2.18,2.12-2.18c0.47,0,0.9,0.1,1.2,0.26
				l-0.34,1.17c-0.14-0.09-0.34-0.13-0.53-0.13c-0.47,0-0.78,0.31-0.78,0.91v0.31h1.27v1.44H126.6z"/>
			<path class="st0" d="M132.47,152.04v-3.28h-1.04v-1.44h1.04v-1.72h1.66v1.72h1.27v1.44h-1.27v2.83c0,0.39,0.21,0.69,0.57,0.69
				c0.25,0,0.48-0.09,0.57-0.18l0.35,1.25c-0.25,0.22-0.69,0.4-1.38,0.4C133.1,153.76,132.47,153.16,132.47,152.04z"/>
			<path class="st0" d="M140.79,153.6v-3.82c0-0.87-0.46-1.14-1.17-1.14c-0.64,0-1.14,0.36-1.43,0.74v4.23h-1.65v-8.67h1.65v3.21
				c0.4-0.48,1.18-0.98,2.21-0.98c1.38,0,2.04,0.75,2.04,1.98v4.46H140.79z"/>
			<path class="st0" d="M143.68,150.45c0-1.78,1.25-3.29,3.32-3.29c2.08,0,3.33,1.51,3.33,3.29c0,1.79-1.25,3.3-3.33,3.3
				C144.93,153.76,143.68,152.25,143.68,150.45z M148.61,150.45c0-0.98-0.58-1.82-1.61-1.82c-1.03,0-1.6,0.85-1.6,1.82
				c0,0.99,0.57,1.83,1.6,1.83C148.02,152.29,148.61,151.44,148.61,150.45z"/>
			<path class="st0" d="M151.71,151.62c0.46,0.43,1.39,0.86,2.17,0.86c0.71,0,1.05-0.25,1.05-0.64c0-0.44-0.55-0.6-1.26-0.74
				c-1.08-0.21-2.47-0.47-2.47-1.96c0-1.05,0.92-1.98,2.57-1.98c1.07,0,1.91,0.36,2.52,0.86l-0.65,1.13
				c-0.38-0.4-1.09-0.73-1.86-0.73c-0.6,0-0.99,0.22-0.99,0.58c0,0.39,0.49,0.53,1.2,0.68c1.08,0.21,2.52,0.49,2.52,2.05
				c0,1.16-0.97,2.02-2.72,2.02c-1.09,0-2.14-0.36-2.81-0.98L151.71,151.62z"/>
			<path class="st0" d="M160.59,147.17c1.87,0,3.15,1.4,3.15,3.46v0.36h-4.67c0.1,0.79,0.74,1.46,1.81,1.46
				c0.58,0,1.27-0.23,1.68-0.62l0.73,1.07c-0.64,0.58-1.61,0.87-2.59,0.87c-1.91,0-3.35-1.29-3.35-3.3
				C157.34,148.63,158.68,147.17,160.59,147.17z M159.04,149.87h3.09c-0.04-0.6-0.46-1.39-1.55-1.39
				C159.56,148.48,159.12,149.25,159.04,149.87z"/>
			<path class="st0" d="M172.33,153.6l-1.66-2.42l-0.75,0.81v1.61h-1.65v-8.67h1.65v5.19l2.38-2.79h2.03l-2.48,2.85l2.56,3.43
				H172.33z"/>
			<path class="st0" d="M177.79,147.17c1.87,0,3.15,1.4,3.15,3.46v0.36h-4.67c0.1,0.79,0.74,1.46,1.81,1.46
				c0.58,0,1.27-0.23,1.68-0.62l0.73,1.07c-0.64,0.58-1.61,0.87-2.59,0.87c-1.91,0-3.35-1.29-3.35-3.3
				C174.54,148.63,175.88,147.17,177.79,147.17z M176.24,149.87h3.09c-0.04-0.6-0.46-1.39-1.55-1.39
				C176.76,148.48,176.32,149.25,176.24,149.87z"/>
			<path class="st0" d="M182.16,154.58c0.14,0.06,0.36,0.1,0.52,0.1c0.43,0,0.71-0.12,0.87-0.46l0.23-0.53l-2.55-6.37H183l1.64,4.37
				l1.64-4.37h1.78l-2.95,7.31c-0.47,1.18-1.3,1.5-2.38,1.52c-0.2,0-0.61-0.04-0.82-0.09L182.16,154.58z"/>
			<path class="st0" d="M194.31,153.6l-1.33-4.28l-1.33,4.28h-1.77l-1.91-6.28h1.72l1.17,4.23l1.38-4.23h1.47l1.38,4.23l1.17-4.23
				h1.72l-1.91,6.28H194.31z"/>
			<path class="st0" d="M198.4,150.45c0-1.78,1.25-3.29,3.32-3.29c2.08,0,3.33,1.51,3.33,3.29c0,1.79-1.25,3.3-3.33,3.3
				C199.64,153.76,198.4,152.25,198.4,150.45z M203.32,150.45c0-0.98-0.58-1.82-1.61-1.82c-1.03,0-1.6,0.85-1.6,1.82
				c0,0.99,0.57,1.83,1.6,1.83C202.74,152.29,203.32,151.44,203.32,150.45z"/>
			<path class="st0" d="M206.26,153.6v-6.28h1.65v0.86c0.44-0.56,1.22-1,2-1v1.61c-0.12-0.03-0.27-0.04-0.46-0.04
				c-0.55,0-1.27,0.3-1.55,0.7v4.15H206.26z"/>
			<path class="st0" d="M215.26,153.6v-0.79c-0.49,0.61-1.18,0.95-1.94,0.95c-1.59,0-2.78-1.2-2.78-3.29c0-2.05,1.18-3.3,2.78-3.3
				c0.74,0,1.44,0.32,1.94,0.96v-3.2h1.66v8.67H215.26z M215.26,149.35c-0.29-0.42-0.87-0.72-1.43-0.72c-0.94,0-1.59,0.74-1.59,1.83
				c0,1.08,0.65,1.82,1.59,1.82c0.56,0,1.14-0.3,1.43-0.72V149.35z"/>
			<path class="st0" d="M221.89,153.6v-6.28h1.65v0.86c0.44-0.56,1.22-1,2-1v1.61c-0.12-0.03-0.27-0.04-0.45-0.04
				c-0.55,0-1.27,0.3-1.55,0.7v4.15H221.89z"/>
			<path class="st0" d="M230.34,153.6v-0.65c-0.43,0.51-1.17,0.81-1.99,0.81c-1,0-2.18-0.68-2.18-2.08c0-1.47,1.18-2,2.18-2
				c0.83,0,1.57,0.26,1.99,0.77v-0.87c0-0.64-0.55-1.05-1.38-1.05c-0.68,0-1.3,0.25-1.83,0.74l-0.62-1.1
				c0.77-0.68,1.75-0.99,2.74-0.99c1.43,0,2.74,0.57,2.74,2.38v4.06H230.34z M230.34,151.31c-0.27-0.36-0.79-0.55-1.33-0.55
				c-0.65,0-1.18,0.35-1.18,0.95c0,0.59,0.53,0.92,1.18,0.92c0.53,0,1.05-0.18,1.33-0.55V151.31z"/>
			<path class="st0" d="M237.86,153.6v-3.8c0-0.87-0.46-1.17-1.16-1.17c-0.65,0-1.16,0.36-1.43,0.74v4.23h-1.65v-6.28h1.65v0.82
				c0.4-0.48,1.17-0.98,2.2-0.98c1.38,0,2.04,0.78,2.04,2v4.43H237.86z"/>
			<path class="st0" d="M245.22,153.6l-1.66-2.42l-0.75,0.81v1.61h-1.65v-8.67h1.65v5.19l2.38-2.79h2.03l-2.48,2.85l2.56,3.43
				H245.22z"/>
			<path class="st0" d="M247.94,145.41c0-0.55,0.46-0.99,0.99-0.99c0.55,0,0.99,0.44,0.99,0.99s-0.44,0.99-0.99,0.99
				C248.39,146.4,247.94,145.96,247.94,145.41z M248.11,153.6v-6.28h1.65v6.28H248.11z"/>
			<path class="st0" d="M255.63,153.6v-3.8c0-0.87-0.46-1.17-1.16-1.17c-0.65,0-1.16,0.36-1.43,0.74v4.23h-1.65v-6.28h1.65v0.82
				c0.4-0.48,1.17-0.98,2.2-0.98c1.38,0,2.04,0.78,2.04,2v4.43H255.63z"/>
			<path class="st0" d="M259.53,154.02c0.51,0.56,1.17,0.78,1.96,0.78c0.79,0,1.73-0.35,1.73-1.59v-0.64
				c-0.49,0.62-1.17,0.99-1.94,0.99c-1.57,0-2.77-1.1-2.77-3.2c0-2.05,1.18-3.2,2.77-3.2c0.75,0,1.43,0.32,1.94,0.96v-0.81h1.66
				v5.85c0,2.39-1.85,2.98-3.39,2.98c-1.08,0-1.92-0.25-2.7-0.94L259.53,154.02z M263.23,149.35c-0.27-0.42-0.87-0.72-1.42-0.72
				c-0.94,0-1.59,0.65-1.59,1.73s0.65,1.73,1.59,1.73c0.55,0,1.14-0.31,1.42-0.72V149.35z"/>
			<path class="st0" d="M269.69,145.41c0-0.55,0.46-0.99,0.99-0.99c0.55,0,0.99,0.44,0.99,0.99s-0.44,0.99-0.99,0.99
				C270.14,146.4,269.69,145.96,269.69,145.41z M269.86,153.6v-6.28h1.65v6.28H269.86z"/>
			<path class="st0" d="M277.38,153.6v-3.8c0-0.87-0.46-1.17-1.16-1.17c-0.65,0-1.16,0.36-1.43,0.74v4.23h-1.65v-6.28h1.65v0.82
				c0.4-0.48,1.17-0.98,2.2-0.98c1.38,0,2.04,0.78,2.04,2v4.43H277.38z"/>
			<path class="st0" d="M284.32,152.04v-3.28h-1.04v-1.44h1.04v-1.72h1.66v1.72h1.27v1.44h-1.27v2.83c0,0.39,0.21,0.69,0.57,0.69
				c0.25,0,0.48-0.09,0.57-0.18l0.35,1.25c-0.25,0.22-0.69,0.4-1.38,0.4C284.95,153.76,284.32,153.16,284.32,152.04z"/>
			<path class="st0" d="M292.64,153.6v-3.82c0-0.87-0.46-1.14-1.17-1.14c-0.64,0-1.14,0.36-1.43,0.74v4.23h-1.65v-8.67h1.65v3.21
				c0.4-0.48,1.18-0.98,2.21-0.98c1.38,0,2.04,0.75,2.04,1.98v4.46H292.64z"/>
			<path class="st0" d="M298.78,147.17c1.87,0,3.15,1.4,3.15,3.46v0.36h-4.67c0.1,0.79,0.74,1.46,1.81,1.46
				c0.58,0,1.27-0.23,1.68-0.62l0.73,1.07c-0.64,0.58-1.61,0.87-2.59,0.87c-1.91,0-3.35-1.29-3.35-3.3
				C295.53,148.63,296.87,147.17,298.78,147.17z M297.23,149.87h3.09c-0.04-0.6-0.46-1.39-1.55-1.39
				C297.75,148.48,297.31,149.25,297.23,149.87z"/>
		</g>
		<g>
			<path class="st0" d="M157.63,170.53v-7.05h-2.54v-1.62h6.92v1.62h-2.52v7.05H157.63z"/>
			<path class="st0" d="M166.99,161.71c2.63,0,4.54,1.87,4.54,4.49s-1.91,4.49-4.54,4.49c-2.61,0-4.52-1.87-4.52-4.49
				S164.38,161.71,166.99,161.71z M166.99,163.35c-1.6,0-2.63,1.22-2.63,2.85c0,1.61,1.03,2.85,2.63,2.85c1.6,0,2.64-1.24,2.64-2.85
				C169.63,164.57,168.59,163.35,166.99,163.35z"/>
			<path class="st0" d="M172.83,170.53v-8.67h4.06c1.88,0,2.91,1.27,2.91,2.8c0,1.51-1.04,2.77-2.91,2.77h-2.21v3.11H172.83z
				 M176.64,163.44h-1.96v2.39h1.96c0.73,0,1.27-0.47,1.27-1.2C177.91,163.92,177.37,163.44,176.64,163.44z"/>
			<path class="st0" d="M184.63,168.08c0.6,0.62,1.55,0.99,2.39,0.99c1.05,0,1.64-0.46,1.64-1.12c0-0.7-0.53-1.03-1.74-1.03
				c-0.36,0-0.95,0-1.08,0.01v-1.61c0.16,0.01,0.74,0.01,1.08,0.01c0.96,0,1.6-0.31,1.6-0.96c0-0.69-0.7-1.04-1.61-1.04
				c-0.84,0-1.6,0.33-2.21,0.91l-0.91-1.14c0.7-0.79,1.79-1.38,3.32-1.38c2.03,0,3.28,0.91,3.28,2.35c0,1.09-0.94,1.81-1.9,1.98
				c0.88,0.09,2.03,0.78,2.03,2.08c0,1.5-1.34,2.55-3.42,2.55c-1.6,0-2.78-0.61-3.42-1.39L184.63,168.08z"/>
			<path class="st0" d="M195.23,170.53v-8.67h4.06c1.88,0,2.91,1.27,2.91,2.8c0,1.51-1.04,2.77-2.91,2.77h-2.21v3.11H195.23z
				 M199.04,163.44h-1.96v2.39h1.96c0.73,0,1.27-0.47,1.27-1.2C200.31,163.92,199.76,163.44,199.04,163.44z"/>
			<path class="st0" d="M207.45,161.71c2.63,0,4.54,1.87,4.54,4.49s-1.91,4.49-4.54,4.49c-2.61,0-4.52-1.87-4.52-4.49
				S204.83,161.71,207.45,161.71z M207.45,163.35c-1.6,0-2.63,1.22-2.63,2.85c0,1.61,1.03,2.85,2.63,2.85c1.6,0,2.64-1.24,2.64-2.85
				C210.09,164.57,209.05,163.35,207.45,163.35z"/>
			<path class="st0" d="M213.7,167.9c0.61,0.64,1.56,1.17,2.76,1.17c1.01,0,1.51-0.48,1.51-0.98c0-0.65-0.75-0.87-1.75-1.1
				c-1.42-0.33-3.24-0.71-3.24-2.65c0-1.44,1.25-2.61,3.29-2.61c1.38,0,2.52,0.42,3.38,1.21l-1.03,1.35
				c-0.7-0.65-1.64-0.95-2.48-0.95c-0.83,0-1.27,0.36-1.27,0.88c0,0.58,0.73,0.77,1.73,1c1.43,0.33,3.25,0.75,3.25,2.68
				c0,1.59-1.13,2.78-3.47,2.78c-1.66,0-2.86-0.56-3.68-1.38L213.7,167.9z"/>
			<path class="st0" d="M221.08,170.53v-8.67h1.85v8.67H221.08z"/>
			<path class="st0" d="M226.65,170.53v-7.05h-2.54v-1.62h6.92v1.62h-2.52v7.05H226.65z"/>
			<path class="st0" d="M232.21,170.53v-8.67h1.85v8.67H232.21z"/>
			<path class="st0" d="M239.88,161.71c2.63,0,4.54,1.87,4.54,4.49s-1.91,4.49-4.54,4.49c-2.61,0-4.52-1.87-4.52-4.49
				S237.27,161.71,239.88,161.71z M239.88,163.35c-1.6,0-2.63,1.22-2.63,2.85c0,1.61,1.03,2.85,2.63,2.85c1.6,0,2.64-1.24,2.64-2.85
				C242.52,164.57,241.48,163.35,239.88,163.35z"/>
			<path class="st0" d="M251.7,170.53l-4.13-5.82v5.82h-1.85v-8.67h1.9l4.02,5.62v-5.62h1.85v8.67H251.7z"/>
			<path class="st0" d="M255.61,167.9c0.61,0.64,1.56,1.17,2.76,1.17c1.01,0,1.51-0.48,1.51-0.98c0-0.65-0.75-0.87-1.75-1.1
				c-1.42-0.33-3.24-0.71-3.24-2.65c0-1.44,1.25-2.61,3.29-2.61c1.38,0,2.52,0.42,3.38,1.21l-1.03,1.35
				c-0.7-0.65-1.64-0.95-2.48-0.95c-0.83,0-1.27,0.36-1.27,0.88c0,0.58,0.73,0.77,1.73,1c1.43,0.33,3.25,0.75,3.25,2.68
				c0,1.59-1.13,2.78-3.47,2.78c-1.66,0-2.86-0.56-3.68-1.38L255.61,167.9z"/>
		</g>
		<g>
			<path class="st0" d="M153.65,137.1v-23.23l-5.28,5.42l-3.89-4.08l10.08-10.13h5.95v32.02H153.65z"/>
			<path class="st0" d="M169.92,129.23c1.73,1.58,3.55,2.45,6.38,2.45c5.14,0,8.02-4.37,8.02-9.22v-0.67
				c-1.54,2.16-4.75,4.13-8.26,4.13c-5.76,0-10.94-3.55-10.94-10.37c0-6.24,4.99-10.99,12.29-10.99c9.7,0,13.78,7.49,13.78,16.56
				c0,9.65-5.42,16.51-14.88,16.51c-3.89,0-7.15-1.3-9.41-3.31L169.92,129.23z M177.7,110.46c-3.65,0-5.62,2.54-5.62,4.8
				c0,3.41,2.83,4.9,5.91,4.9c2.4,0,4.75-1.1,6.24-2.98C183.99,114.11,182.26,110.46,177.7,110.46z"/>
			<path class="st0" d="M194.59,141.52c1.54-0.82,3.31-2.78,3.7-4.46c-0.14,0.05-0.58,0.14-0.91,0.14c-1.82,0-3.26-1.44-3.26-3.5
				c0-2.11,1.73-3.84,3.75-3.84c2.26,0,4.32,1.78,4.32,4.9c0,3.6-2.02,6.82-4.95,8.93L194.59,141.52z"/>
			<path class="st0" d="M220.66,137.1v-6.62h-15.31v-5.38l12.72-20.02h9.41v19.39h4.13v6h-4.13v6.62H220.66z M220.66,111.13
				l-8.64,13.35h8.64V111.13z"/>
			<path class="st0" d="M242.5,137.1v-23.23l-5.28,5.42l-3.89-4.08l10.08-10.13h5.95v32.02H242.5z"/>
			<path class="st0" d="M262.22,137.1v-23.23l-5.28,5.42l-3.89-4.08l10.08-10.13h5.95v32.02H262.22z"/>
		</g>
	</g>
	<g>
		<g>
			<path class="st0" d="M24.39,8.8l-1.52-5.95L21.36,8.8H19.4l-2.48-8.67h2.07L20.5,6.4l1.65-6.27h1.44l1.64,6.27l1.51-6.27h2.08
				L26.35,8.8H24.39z"/>
			<path class="st0" d="M31.98,2.37c1.87,0,3.15,1.4,3.15,3.46v0.36h-4.67c0.1,0.79,0.74,1.46,1.81,1.46c0.58,0,1.27-0.23,1.68-0.62
				l0.73,1.07c-0.64,0.58-1.61,0.87-2.59,0.87c-1.91,0-3.35-1.29-3.35-3.3C28.73,3.83,30.07,2.37,31.98,2.37z M30.44,5.07h3.09
				c-0.04-0.6-0.46-1.39-1.55-1.39C30.96,3.68,30.51,4.45,30.44,5.07z"/>
			<path class="st0" d="M36.16,3.16c0.42-0.22,0.9-0.77,1-1.24C37.12,1.95,37,1.98,36.91,1.98c-0.49,0-0.88-0.39-0.88-0.94
				c0-0.57,0.47-1.04,1.01-1.04c0.61,0,1.17,0.48,1.17,1.33c0,0.98-0.55,1.85-1.34,2.42L36.16,3.16z"/>
			<path class="st0" d="M41.17,8.8l-2.52-6.28h1.77l1.64,4.37l1.64-4.37h1.78L42.96,8.8H41.17z"/>
			<path class="st0" d="M49.07,2.37c1.87,0,3.15,1.4,3.15,3.46v0.36h-4.67c0.1,0.79,0.74,1.46,1.81,1.46c0.58,0,1.27-0.23,1.68-0.62
				l0.73,1.07c-0.64,0.58-1.61,0.87-2.59,0.87c-1.91,0-3.35-1.29-3.35-3.3C45.82,3.83,47.15,2.37,49.07,2.37z M47.52,5.07h3.09
				c-0.04-0.6-0.46-1.39-1.55-1.39C48.04,3.68,47.6,4.45,47.52,5.07z"/>
			<path class="st0" d="M60.99,8.8V4.98c0-0.87-0.46-1.14-1.17-1.14c-0.64,0-1.14,0.36-1.43,0.74V8.8h-1.65V0.13h1.65v3.21
				c0.4-0.48,1.18-0.98,2.21-0.98c1.38,0,2.04,0.75,2.04,1.98V8.8H60.99z"/>
			<path class="st0" d="M67.12,2.37c1.87,0,3.15,1.4,3.15,3.46v0.36H65.6c0.1,0.79,0.74,1.46,1.81,1.46c0.58,0,1.27-0.23,1.68-0.62
				l0.73,1.07c-0.64,0.58-1.61,0.87-2.59,0.87c-1.91,0-3.35-1.29-3.35-3.3C63.87,3.83,65.21,2.37,67.12,2.37z M65.58,5.07h3.09
				c-0.04-0.6-0.46-1.39-1.55-1.39C66.09,3.68,65.65,4.45,65.58,5.07z"/>
			<path class="st0" d="M71.46,8.8V0.13h1.65V8.8H71.46z"/>
			<path class="st0" d="M76.4,11.19h-1.65V2.52h1.65v0.79c0.48-0.61,1.17-0.95,1.94-0.95c1.61,0,2.78,1.2,2.78,3.29
				c0,2.09-1.17,3.3-2.78,3.3c-0.74,0-1.43-0.31-1.94-0.96V11.19z M77.82,3.83c-0.53,0-1.14,0.31-1.42,0.72v2.22
				c0.27,0.39,0.88,0.72,1.42,0.72c0.95,0,1.59-0.74,1.59-1.83C79.41,4.58,78.77,3.83,77.82,3.83z"/>
			<path class="st0" d="M85.2,2.37c1.87,0,3.15,1.4,3.15,3.46v0.36h-4.67c0.1,0.79,0.74,1.46,1.81,1.46c0.58,0,1.27-0.23,1.68-0.62
				l0.73,1.07c-0.64,0.58-1.61,0.87-2.59,0.87c-1.91,0-3.35-1.29-3.35-3.3C81.95,3.83,83.29,2.37,85.2,2.37z M83.66,5.07h3.09
				c-0.04-0.6-0.46-1.39-1.55-1.39C84.18,3.68,83.74,4.45,83.66,5.07z"/>
			<path class="st0" d="M93.86,8.8V8.01c-0.49,0.61-1.18,0.95-1.94,0.95c-1.59,0-2.78-1.2-2.78-3.29c0-2.05,1.18-3.3,2.78-3.3
				c0.74,0,1.44,0.32,1.94,0.96v-3.2h1.66V8.8H93.86z M93.86,4.55c-0.29-0.42-0.87-0.72-1.43-0.72c-0.94,0-1.59,0.74-1.59,1.83
				c0,1.08,0.65,1.82,1.59,1.82c0.56,0,1.14-0.3,1.43-0.72V4.55z"/>
			<path class="st0" d="M100.49,8.8V2.52h1.65v0.86c0.44-0.56,1.22-1,2-1v1.61c-0.12-0.03-0.27-0.04-0.45-0.04
				c-0.55,0-1.27,0.3-1.55,0.7V8.8H100.49z"/>
			<path class="st0" d="M108.94,8.8V8.15c-0.43,0.51-1.17,0.81-1.99,0.81c-1,0-2.18-0.68-2.18-2.08c0-1.47,1.18-2,2.18-2
				c0.83,0,1.57,0.26,1.99,0.77V4.77c0-0.64-0.55-1.05-1.38-1.05c-0.68,0-1.3,0.25-1.83,0.74l-0.62-1.1
				c0.77-0.68,1.75-0.99,2.74-0.99c1.43,0,2.74,0.57,2.74,2.38V8.8H108.94z M108.94,6.51c-0.27-0.36-0.79-0.55-1.33-0.55
				c-0.65,0-1.18,0.35-1.18,0.95c0,0.59,0.53,0.92,1.18,0.92c0.53,0,1.05-0.18,1.33-0.55V6.51z"/>
			<path class="st0" d="M116.47,8.8v-3.8c0-0.87-0.46-1.17-1.16-1.17c-0.65,0-1.16,0.36-1.43,0.74V8.8h-1.65V2.52h1.65v0.82
				c0.4-0.48,1.17-0.98,2.2-0.98c1.38,0,2.04,0.78,2.04,2V8.8H116.47z"/>
			<path class="st0" d="M123.83,8.8l-1.66-2.42l-0.75,0.81V8.8h-1.65V0.13h1.65v5.19l2.38-2.79h2.03l-2.48,2.85l2.56,3.43H123.83z"
				/>
		</g>
		<g>
			<path class="st0" d="M28.15,67.22l-2.63-3.47l-0.68,0.81v2.67h-1.85v-8.67h1.85v3.87l3.07-3.87h2.27l-3.44,4.07l3.68,4.6H28.15z"
				/>
			<path class="st0" d="M33.73,60.79c1.87,0,3.15,1.4,3.15,3.46v0.36h-4.67c0.1,0.79,0.74,1.46,1.81,1.46
				c0.58,0,1.27-0.23,1.68-0.62l0.73,1.07c-0.64,0.58-1.61,0.87-2.59,0.87c-1.91,0-3.35-1.29-3.35-3.3
				C30.48,62.26,31.82,60.79,33.73,60.79z M32.18,63.49h3.09c-0.04-0.6-0.46-1.39-1.55-1.39C32.7,62.1,32.26,62.87,32.18,63.49z"/>
			<path class="st0" d="M38.1,68.2c0.14,0.06,0.36,0.1,0.52,0.1c0.43,0,0.71-0.12,0.87-0.46l0.23-0.53l-2.55-6.37h1.77l1.64,4.37
				l1.64-4.37H44l-2.95,7.31c-0.47,1.18-1.3,1.5-2.38,1.52c-0.2,0-0.61-0.04-0.82-0.09L38.1,68.2z"/>
			<path class="st0" d="M50.25,67.22l-1.33-4.28l-1.33,4.28h-1.77l-1.91-6.28h1.72l1.17,4.23l1.38-4.23h1.47l1.38,4.23l1.17-4.23
				h1.72l-1.91,6.28H50.25z"/>
			<path class="st0" d="M54.34,64.08c0-1.78,1.25-3.29,3.32-3.29c2.08,0,3.33,1.51,3.33,3.29c0,1.79-1.25,3.3-3.33,3.3
				C55.58,67.38,54.34,65.87,54.34,64.08z M59.26,64.08c0-0.98-0.58-1.82-1.61-1.82c-1.03,0-1.6,0.85-1.6,1.82
				c0,0.99,0.57,1.83,1.6,1.83C58.68,65.91,59.26,65.07,59.26,64.08z"/>
			<path class="st0" d="M62.2,67.22v-6.28h1.65v0.86c0.44-0.56,1.22-1,2-1v1.61c-0.12-0.03-0.27-0.04-0.46-0.04
				c-0.55,0-1.27,0.3-1.55,0.7v4.15H62.2z"/>
			<path class="st0" d="M71.2,67.22v-0.79c-0.49,0.61-1.18,0.95-1.94,0.95c-1.59,0-2.78-1.2-2.78-3.29c0-2.05,1.18-3.3,2.78-3.3
				c0.74,0,1.44,0.32,1.94,0.96v-3.2h1.66v8.67H71.2z M71.2,62.97c-0.29-0.42-0.87-0.72-1.43-0.72c-0.94,0-1.59,0.74-1.59,1.83
				c0,1.08,0.65,1.82,1.59,1.82c0.56,0,1.14-0.3,1.43-0.72V62.97z"/>
			<path class="st0" d="M74.67,65.25c0.46,0.43,1.39,0.86,2.17,0.86c0.71,0,1.05-0.25,1.05-0.64c0-0.44-0.55-0.6-1.26-0.74
				c-1.08-0.21-2.47-0.47-2.47-1.96c0-1.05,0.92-1.98,2.57-1.98c1.07,0,1.91,0.36,2.52,0.86l-0.65,1.13
				c-0.38-0.4-1.09-0.73-1.86-0.73c-0.6,0-0.99,0.22-0.99,0.58c0,0.39,0.49,0.53,1.2,0.68c1.08,0.21,2.52,0.49,2.52,2.05
				c0,1.16-0.97,2.02-2.72,2.02c-1.09,0-2.14-0.36-2.81-0.98L74.67,65.25z"/>
			<path class="st0" d="M83.62,64.08c0-1.78,1.25-3.29,3.32-3.29c2.08,0,3.33,1.51,3.33,3.29c0,1.79-1.25,3.3-3.33,3.3
				C84.87,67.38,83.62,65.87,83.62,64.08z M88.55,64.08c0-0.98-0.58-1.82-1.61-1.82c-1.03,0-1.6,0.85-1.6,1.82
				c0,0.99,0.57,1.83,1.6,1.83C87.97,65.91,88.55,65.07,88.55,64.08z"/>
			<path class="st0" d="M95.73,67.22v-3.8c0-0.87-0.46-1.17-1.16-1.17c-0.65,0-1.16,0.36-1.43,0.74v4.23h-1.65v-6.28h1.65v0.82
				c0.4-0.48,1.17-0.98,2.2-0.98c1.38,0,2.04,0.78,2.04,2v4.43H95.73z"/>
			<path class="st0" d="M102.67,65.66v-3.28h-1.04v-1.44h1.04v-1.72h1.66v1.72h1.27v1.44h-1.27v2.83c0,0.39,0.21,0.69,0.57,0.69
				c0.25,0,0.48-0.09,0.57-0.18l0.35,1.25c-0.25,0.22-0.69,0.4-1.38,0.4C103.29,67.38,102.67,66.78,102.67,65.66z"/>
			<path class="st0" d="M110.99,67.22V63.4c0-0.87-0.46-1.14-1.17-1.14c-0.64,0-1.14,0.36-1.43,0.74v4.23h-1.65v-8.67h1.65v3.21
				c0.4-0.48,1.18-0.98,2.21-0.98c1.38,0,2.04,0.75,2.04,1.98v4.46H110.99z"/>
			<path class="st0" d="M117.12,60.79c1.87,0,3.15,1.4,3.15,3.46v0.36h-4.67c0.1,0.79,0.74,1.46,1.81,1.46
				c0.58,0,1.27-0.23,1.68-0.62l0.73,1.07c-0.64,0.58-1.61,0.87-2.59,0.87c-1.91,0-3.35-1.29-3.35-3.3
				C113.88,62.26,115.21,60.79,117.12,60.79z M115.58,63.49h3.09c-0.04-0.6-0.46-1.39-1.55-1.39
				C116.1,62.1,115.66,62.87,115.58,63.49z"/>
		</g>
		<g>
			<path class="st0" d="M7.28,83.3v-6.29l-1.43,1.47l-1.05-1.1l2.73-2.74h1.61v8.67H7.28z"/>
			<path class="st0" d="M11.27,80.67c0.61,0.64,1.56,1.17,2.76,1.17c1.01,0,1.51-0.48,1.51-0.98c0-0.65-0.75-0.87-1.75-1.1
				c-1.42-0.33-3.24-0.71-3.24-2.65c0-1.44,1.25-2.61,3.29-2.61c1.38,0,2.52,0.42,3.38,1.21l-1.03,1.35
				c-0.7-0.65-1.64-0.95-2.48-0.95c-0.83,0-1.27,0.36-1.27,0.88c0,0.58,0.73,0.77,1.73,1c1.43,0.33,3.25,0.75,3.25,2.68
				c0,1.59-1.13,2.78-3.47,2.78c-1.66,0-2.86-0.56-3.68-1.38L11.27,80.67z"/>
			<path class="st0" d="M20.56,83.3v-7.05h-2.54v-1.62h6.92v1.62h-2.52v7.05H20.56z"/>
			<path class="st0" d="M29.45,83.3v-8.67h4.06c1.88,0,2.91,1.27,2.91,2.8c0,1.51-1.04,2.77-2.91,2.77H31.3v3.11H29.45z
				 M33.26,76.21H31.3v2.39h1.96c0.73,0,1.27-0.47,1.27-1.2C34.54,76.7,33.99,76.21,33.26,76.21z"/>
			<path class="st0" d="M42.68,83.3l-0.55-1.5h-3.87l-0.55,1.5h-2.03l3.35-8.67h2.31l3.34,8.67H42.68z M40.19,76.23l-1.44,3.98h2.87
				L40.19,76.23z"/>
			<path class="st0" d="M49.25,74.49c1.79,0,2.92,0.87,3.59,1.9l-1.53,0.83c-0.4-0.61-1.14-1.09-2.05-1.09
				c-1.57,0-2.72,1.21-2.72,2.85s1.14,2.85,2.72,2.85c0.79,0,1.5-0.33,1.87-0.66V80.1h-2.31v-1.59h4.13v3.31
				c-0.88,0.99-2.12,1.64-3.69,1.64c-2.54,0-4.62-1.77-4.62-4.5C44.64,76.23,46.72,74.49,49.25,74.49z"/>
			<path class="st0" d="M54.41,83.3v-8.67h6.14v1.59h-4.29v1.89h4.2v1.59h-4.2v2.02h4.29v1.6H54.41z"/>
			<path class="st0" d="M69.43,74.49c2.63,0,4.54,1.87,4.54,4.49s-1.91,4.49-4.54,4.49c-2.61,0-4.52-1.87-4.52-4.49
				S66.82,74.49,69.43,74.49z M69.43,76.12c-1.6,0-2.63,1.22-2.63,2.85c0,1.61,1.03,2.85,2.63,2.85c1.6,0,2.64-1.24,2.64-2.85
				C72.07,77.35,71.03,76.12,69.43,76.12z"/>
			<path class="st0" d="M75.27,83.3v-8.67h6.14v1.59h-4.29v1.89h4.2v1.59h-4.2v3.61H75.27z"/>
			<path class="st0" d="M90.22,74.49c1.79,0,2.92,0.87,3.59,1.9l-1.53,0.83c-0.4-0.61-1.14-1.09-2.05-1.09
				c-1.57,0-2.72,1.21-2.72,2.85s1.14,2.85,2.72,2.85c0.79,0,1.5-0.33,1.87-0.66V80.1h-2.31v-1.59h4.13v3.31
				c-0.88,0.99-2.12,1.64-3.69,1.64c-2.54,0-4.62-1.77-4.62-4.5C85.6,76.23,87.68,74.49,90.22,74.49z"/>
			<path class="st0" d="M99.48,74.49c2.63,0,4.54,1.87,4.54,4.49s-1.91,4.49-4.54,4.49c-2.61,0-4.52-1.87-4.52-4.49
				S96.87,74.49,99.48,74.49z M99.48,76.12c-1.6,0-2.63,1.22-2.63,2.85c0,1.61,1.03,2.85,2.63,2.85c1.6,0,2.64-1.24,2.64-2.85
				C102.12,77.35,101.08,76.12,99.48,76.12z"/>
			<path class="st0" d="M109.43,74.49c2.63,0,4.54,1.87,4.54,4.49s-1.91,4.49-4.54,4.49c-2.61,0-4.52-1.87-4.52-4.49
				S106.82,74.49,109.43,74.49z M109.43,76.12c-1.6,0-2.63,1.22-2.63,2.85c0,1.61,1.03,2.85,2.63,2.85c1.6,0,2.64-1.24,2.64-2.85
				C112.07,77.35,111.03,76.12,109.43,76.12z"/>
			<path class="st0" d="M119.47,74.49c1.79,0,2.92,0.87,3.59,1.9l-1.53,0.83c-0.4-0.61-1.14-1.09-2.05-1.09
				c-1.57,0-2.72,1.21-2.72,2.85s1.14,2.85,2.72,2.85c0.79,0,1.49-0.33,1.87-0.66V80.1h-2.31v-1.59h4.13v3.31
				c-0.88,0.99-2.12,1.64-3.69,1.64c-2.54,0-4.62-1.77-4.62-4.5C114.85,76.23,116.93,74.49,119.47,74.49z"/>
			<path class="st0" d="M124.63,83.3v-8.67h1.85v7.05h3.67v1.62H124.63z"/>
			<path class="st0" d="M131.43,83.3v-8.67h6.14v1.59h-4.29v1.89h4.2v1.59h-4.2v2.02h4.29v1.6H131.43z"/>
		</g>
		<g>
			<path class="st0" d="M15.31,49.9v-6.62H0V37.9l12.72-20.02h9.41v19.39h4.13v6h-4.13v6.62H15.31z M15.31,23.93L6.67,37.28h8.64
				V23.93z"/>
			<path class="st0" d="M37.15,49.9V26.67l-5.28,5.42l-3.89-4.08l10.08-10.13h5.95V49.9H37.15z"/>
			<path class="st0" d="M49.92,54.32c1.54-0.82,3.31-2.78,3.7-4.46C53.47,49.9,53.04,50,52.7,50c-1.82,0-3.26-1.44-3.26-3.5
				c0-2.11,1.73-3.84,3.75-3.84c2.26,0,4.32,1.78,4.32,4.9c0,3.6-2.02,6.82-4.94,8.93L49.92,54.32z"/>
			<path class="st0" d="M65.57,41.07c2.21,2.26,5.18,3.46,8.54,3.46c3.79,0,5.95-2.16,5.95-4.8c0-2.93-2.11-4.9-5.76-4.9
				c-2.64,0-4.8,0.82-6.72,2.64l-4.75-1.3V17.88h21.99v5.86H69.5v8.02c1.68-1.49,4.27-2.64,7.2-2.64c5.42,0,10.27,3.84,10.27,10.32
				c0,6.77-5.09,11.04-12.82,11.04c-5.57,0-9.6-1.82-12.34-4.8L65.57,41.07z"/>
			<path class="st0" d="M94.75,41.07c2.21,2.26,5.18,3.46,8.54,3.46c3.79,0,5.95-2.16,5.95-4.8c0-2.93-2.11-4.9-5.76-4.9
				c-2.64,0-4.8,0.82-6.72,2.64l-4.75-1.3V17.88H114v5.86H98.69v8.02c1.68-1.49,4.27-2.64,7.2-2.64c5.42,0,10.27,3.84,10.27,10.32
				c0,6.77-5.09,11.04-12.82,11.04c-5.57,0-9.6-1.82-12.34-4.8L94.75,41.07z"/>
			<path class="st0" d="M123.65,49.9l11.47-26.02h-16.13v-6h24.05v4.75L131.13,49.9H123.65z"/>
		</g>
	</g>
	<g>
		<g>
			<path class="st0" d="M32.09,222.8c2.22,0,3.84,1.58,3.84,3.8s-1.62,3.8-3.84,3.8c-2.21,0-3.83-1.58-3.83-3.8
				S29.88,222.8,32.09,222.8z M32.09,224.18c-1.35,0-2.22,1.03-2.22,2.41c0,1.36,0.87,2.41,2.22,2.41c1.35,0,2.23-1.04,2.23-2.41
				C34.33,225.22,33.45,224.18,32.09,224.18z"/>
			<path class="st0" d="M38.71,226.16v4.09h-1.41v-4.09h-0.88v-1.22h0.88v-0.29c0-1.16,0.75-1.85,1.79-1.85
				c0.4,0,0.76,0.09,1.01,0.22l-0.29,0.99c-0.12-0.08-0.29-0.11-0.45-0.11c-0.4,0-0.66,0.26-0.66,0.77v0.26h1.08v1.22H38.71z"/>
			<path class="st0" d="M46.6,230.26v-0.55c-0.36,0.43-0.99,0.68-1.68,0.68c-0.85,0-1.85-0.57-1.85-1.76c0-1.24,1-1.69,1.85-1.69
				c0.7,0,1.33,0.22,1.68,0.65v-0.74c0-0.54-0.46-0.89-1.17-0.89c-0.57,0-1.1,0.21-1.55,0.63l-0.53-0.94
				c0.65-0.57,1.49-0.84,2.32-0.84c1.21,0,2.32,0.48,2.32,2.01v3.43H46.6z M46.6,228.32c-0.23-0.31-0.67-0.46-1.12-0.46
				c-0.55,0-1,0.3-1,0.8c0,0.5,0.45,0.78,1,0.78c0.45,0,0.89-0.15,1.12-0.46V228.32z"/>
			<path class="st0" d="M49.38,230.26v-7.34h1.4v7.34H49.38z"/>
			<path class="st0" d="M52.17,230.26v-7.34h1.4v7.34H52.17z"/>
			<path class="st0" d="M57.42,227.59c0-1.51,1.06-2.78,2.8-2.78c1.76,0,2.82,1.28,2.82,2.78c0,1.52-1.06,2.79-2.82,2.79
				C58.48,230.39,57.42,229.11,57.42,227.59z M61.59,227.59c0-0.82-0.5-1.54-1.36-1.54s-1.35,0.72-1.35,1.54
				c0,0.84,0.48,1.55,1.35,1.55S61.59,228.43,61.59,227.59z"/>
			<path class="st0" d="M67.67,230.26v-0.67c-0.36,0.41-1,0.8-1.87,0.8c-1.17,0-1.72-0.64-1.72-1.67v-3.77h1.4v3.22
				c0,0.74,0.39,0.98,0.98,0.98c0.54,0,0.97-0.3,1.21-0.6v-3.6h1.4v5.31H67.67z"/>
			<path class="st0" d="M70.45,230.26v-5.31h1.4v0.73c0.38-0.47,1.03-0.85,1.69-0.85v1.36c-0.1-0.02-0.23-0.03-0.38-0.03
				c-0.46,0-1.08,0.25-1.31,0.59v3.51H70.45z"/>
			<path class="st0" d="M77.61,228.03c0.52,0.54,1.32,0.99,2.33,0.99c0.86,0,1.28-0.41,1.28-0.82c0-0.55-0.64-0.74-1.49-0.94
				c-1.2-0.28-2.74-0.61-2.74-2.24c0-1.22,1.06-2.21,2.78-2.21c1.17,0,2.13,0.35,2.86,1.02l-0.87,1.14c-0.59-0.55-1.39-0.8-2.1-0.8
				c-0.7,0-1.08,0.31-1.08,0.75c0,0.5,0.62,0.65,1.46,0.85c1.21,0.28,2.75,0.64,2.75,2.27c0,1.34-0.96,2.35-2.94,2.35
				c-1.41,0-2.42-0.47-3.11-1.17L77.61,228.03z"/>
			<path class="st0" d="M83.86,230.26v-7.34h5.19v1.34h-3.63v1.6h3.55v1.34h-3.55v1.71h3.63v1.35H83.86z"/>
			<path class="st0" d="M93.75,222.8c2.22,0,3.84,1.58,3.84,3.8s-1.62,3.8-3.84,3.8c-2.21,0-3.83-1.58-3.83-3.8
				S91.54,222.8,93.75,222.8z M93.75,224.18c-1.35,0-2.22,1.03-2.22,2.41c0,1.36,0.87,2.41,2.22,2.41c1.35,0,2.23-1.04,2.23-2.41
				C95.98,225.22,95.1,224.18,93.75,224.18z"/>
			<path class="st0" d="M103.94,224.81c1.09,0,1.75,0.47,2.1,0.97l-0.91,0.85c-0.25-0.36-0.64-0.57-1.12-0.57
				c-0.85,0-1.44,0.62-1.44,1.54c0,0.92,0.59,1.55,1.44,1.55c0.48,0,0.87-0.22,1.12-0.57l0.91,0.85c-0.35,0.5-1.01,0.97-2.1,0.97
				c-1.64,0-2.82-1.15-2.82-2.79C101.13,225.96,102.3,224.81,103.94,224.81z"/>
			<path class="st0" d="M110.15,230.26v-0.55c-0.36,0.43-0.99,0.68-1.68,0.68c-0.85,0-1.85-0.57-1.85-1.76c0-1.24,1-1.69,1.85-1.69
				c0.7,0,1.33,0.22,1.68,0.65v-0.74c0-0.54-0.46-0.89-1.17-0.89c-0.57,0-1.1,0.21-1.55,0.63l-0.53-0.94
				c0.65-0.57,1.49-0.84,2.32-0.84c1.21,0,2.32,0.48,2.32,2.01v3.43H110.15z M110.15,228.32c-0.23-0.31-0.67-0.46-1.12-0.46
				c-0.55,0-1,0.3-1,0.8c0,0.5,0.45,0.78,1,0.78c0.45,0,0.89-0.15,1.12-0.46V228.32z"/>
			<path class="st0" d="M119.52,230.26v-3.36c0-0.5-0.22-0.85-0.79-0.85c-0.5,0-0.9,0.33-1.1,0.62v3.59h-1.41v-3.36
				c0-0.5-0.22-0.85-0.79-0.85c-0.48,0-0.89,0.33-1.1,0.63v3.58h-1.4v-5.31h1.4v0.69c0.22-0.32,0.92-0.83,1.74-0.83
				c0.78,0,1.28,0.36,1.47,0.97c0.31-0.48,1.01-0.97,1.83-0.97c0.98,0,1.56,0.52,1.56,1.61v3.84H119.52z"/>
			<path class="st0" d="M123.7,232.28h-1.4v-7.34h1.4v0.67c0.41-0.52,0.99-0.8,1.64-0.8c1.36,0,2.35,1.01,2.35,2.78
				c0,1.77-0.99,2.79-2.35,2.79c-0.63,0-1.21-0.26-1.64-0.81V232.28z M124.9,226.05c-0.45,0-0.97,0.26-1.2,0.6v1.88
				c0.23,0.33,0.75,0.6,1.2,0.6c0.8,0,1.34-0.63,1.34-1.55C126.24,226.68,125.7,226.05,124.9,226.05z"/>
			<path class="st0" d="M131.93,230.26v-0.55c-0.36,0.43-0.99,0.68-1.68,0.68c-0.85,0-1.85-0.57-1.85-1.76c0-1.24,1-1.69,1.85-1.69
				c0.7,0,1.33,0.22,1.68,0.65v-0.74c0-0.54-0.46-0.89-1.17-0.89c-0.57,0-1.1,0.21-1.55,0.63l-0.53-0.94
				c0.65-0.57,1.49-0.84,2.32-0.84c1.21,0,2.32,0.48,2.32,2.01v3.43H131.93z M131.93,228.32c-0.23-0.31-0.67-0.46-1.12-0.46
				c-0.55,0-1,0.3-1,0.8c0,0.5,0.45,0.78,1,0.78c0.45,0,0.89-0.15,1.12-0.46V228.32z"/>
			<path class="st0" d="M134.57,223.32c0-0.46,0.39-0.84,0.84-0.84c0.46,0,0.84,0.37,0.84,0.84c0,0.46-0.37,0.84-0.84,0.84
				C134.95,224.16,134.57,223.79,134.57,223.32z M134.71,230.26v-5.31h1.4v5.31H134.71z"/>
			<path class="st0" d="M138.01,230.61c0.43,0.47,0.99,0.66,1.66,0.66c0.67,0,1.46-0.3,1.46-1.34v-0.54
				c-0.42,0.53-0.99,0.84-1.64,0.84c-1.33,0-2.34-0.94-2.34-2.71c0-1.74,1-2.71,2.34-2.71c0.64,0,1.21,0.27,1.64,0.81v-0.68h1.41
				v4.95c0,2.02-1.56,2.52-2.87,2.52c-0.91,0-1.63-0.21-2.29-0.79L138.01,230.61z M141.13,226.66c-0.23-0.35-0.74-0.6-1.2-0.6
				c-0.79,0-1.34,0.55-1.34,1.46s0.55,1.46,1.34,1.46c0.46,0,0.97-0.26,1.2-0.6V226.66z"/>
			<path class="st0" d="M147.51,230.26v-3.21c0-0.74-0.38-0.99-0.98-0.99c-0.55,0-0.98,0.31-1.21,0.63v3.58h-1.4v-5.31h1.4v0.69
				c0.34-0.41,0.99-0.83,1.86-0.83c1.17,0,1.73,0.66,1.73,1.69v3.75H147.51z"/>
			<path class="st0" d="M150.44,228.58c0.38,0.36,1.18,0.73,1.84,0.73c0.6,0,0.89-0.21,0.89-0.54c0-0.37-0.46-0.51-1.07-0.63
				c-0.91-0.18-2.09-0.4-2.09-1.66c0-0.89,0.78-1.67,2.18-1.67c0.9,0,1.62,0.31,2.13,0.73l-0.55,0.96
				c-0.32-0.34-0.92-0.62-1.57-0.62c-0.51,0-0.84,0.19-0.84,0.49c0,0.33,0.42,0.45,1.01,0.57c0.91,0.18,2.13,0.42,2.13,1.74
				c0,0.98-0.82,1.71-2.3,1.71c-0.92,0-1.82-0.31-2.38-0.82L150.44,228.58z"/>
		</g>
		<g>
			<path class="st0" d="M23.67,244.73v-3.64h-4.09v3.64h-1.85v-8.67h1.85v3.41h4.09v-3.41h1.86v8.67H23.67z"/>
			<path class="st0" d="M27.24,244.73v-8.67h1.85v8.67H27.24z"/>
			<path class="st0" d="M32.8,244.73v-7.05h-2.54v-1.62h6.92v1.62h-2.52v7.05H32.8z"/>
			<path class="st0" d="M43.69,244.73v-7.05h-2.54v-1.62h6.92v1.62h-2.52v7.05H43.69z"/>
			<path class="st0" d="M55.2,244.73v-3.64H51.1v3.64h-1.85v-8.67h1.85v3.41h4.09v-3.41h1.86v8.67H55.2z"/>
			<path class="st0" d="M58.76,244.73v-8.67h6.14v1.59h-4.29v1.89h4.2v1.59h-4.2v2.02h4.29v1.6H58.76z"/>
			<path class="st0" d="M66.34,244.73v-8.67h1.85v8.67H66.34z"/>
			<path class="st0" d="M74.8,244.73l-1.7-3.11h-1.35v3.11H69.9v-8.67h4.06c1.81,0,2.91,1.18,2.91,2.8c0,1.53-0.96,2.35-1.9,2.57
				l1.95,3.3H74.8z M73.68,237.65h-1.94v2.39h1.94c0.74,0,1.3-0.47,1.3-1.2S74.42,237.65,73.68,237.65z"/>
			<path class="st0" d="M85.79,235.92c1.79,0,2.92,0.87,3.59,1.9l-1.53,0.83c-0.4-0.61-1.14-1.09-2.05-1.09
				c-1.57,0-2.72,1.21-2.72,2.85s1.14,2.85,2.72,2.85c0.79,0,1.5-0.33,1.87-0.66v-1.05h-2.31v-1.59h4.13v3.31
				c-0.88,0.99-2.12,1.64-3.69,1.64c-2.54,0-4.62-1.77-4.62-4.5C81.17,237.66,83.25,235.92,85.79,235.92z"/>
			<path class="st0" d="M90.95,236.06h1.87v5.15c0,1.21,0.66,2.04,2.01,2.04c1.33,0,1.99-0.83,1.99-2.04v-5.15h1.87v5.2
				c0,2.16-1.24,3.63-3.86,3.63c-2.65,0-3.89-1.48-3.89-3.61V236.06z"/>
			<path class="st0" d="M106.05,244.73l-0.55-1.5h-3.87l-0.55,1.5h-2.03l3.35-8.67h2.31l3.34,8.67H106.05z M103.57,237.66
				l-1.44,3.98H105L103.57,237.66z"/>
			<path class="st0" d="M113.77,244.73l-1.7-3.11h-1.35v3.11h-1.85v-8.67h4.06c1.81,0,2.91,1.18,2.91,2.8c0,1.53-0.96,2.35-1.9,2.57
				l1.95,3.3H113.77z M112.66,237.65h-1.94v2.39h1.94c0.74,0,1.3-0.47,1.3-1.2S113.4,237.65,112.66,237.65z"/>
			<path class="st0" d="M123.3,244.73l-0.55-1.5h-3.87l-0.55,1.5h-2.03l3.35-8.67h2.31l3.34,8.67H123.3z M120.82,237.66l-1.44,3.98
				h2.87L120.82,237.66z"/>
			<path class="st0" d="M132.1,244.73l-4.13-5.82v5.82h-1.85v-8.67h1.9l4.02,5.62v-5.62h1.85v8.67H132.1z"/>
			<path class="st0" d="M137.6,244.73v-7.05h-2.54v-1.62h6.92v1.62h-2.52v7.05H137.6z"/>
			<path class="st0" d="M143.17,244.73v-8.67h6.14v1.59h-4.29v1.89h4.2v1.59h-4.2v2.02h4.29v1.6H143.17z"/>
			<path class="st0" d="M150.75,244.73v-8.67h6.14v1.59h-4.29v1.89h4.2v1.59h-4.2v2.02h4.29v1.6H150.75z"/>
			<path class="st0" d="M158.74,242.11c0.61,0.64,1.56,1.17,2.76,1.17c1.01,0,1.51-0.48,1.51-0.98c0-0.65-0.75-0.87-1.75-1.1
				c-1.42-0.33-3.24-0.71-3.24-2.65c0-1.44,1.25-2.61,3.29-2.61c1.38,0,2.52,0.42,3.38,1.21l-1.03,1.35
				c-0.7-0.65-1.64-0.95-2.48-0.95c-0.83,0-1.27,0.36-1.27,0.88c0,0.58,0.73,0.77,1.73,1c1.43,0.33,3.25,0.75,3.25,2.68
				c0,1.59-1.13,2.78-3.47,2.78c-1.66,0-2.86-0.56-3.68-1.38L158.74,242.11z"/>
		</g>
		<g>
			<path class="st0" d="M50.01,208.65c1.73,1.58,3.55,2.45,6.38,2.45c5.14,0,8.02-4.37,8.02-9.22v-0.67
				c-1.54,2.16-4.75,4.13-8.26,4.13c-5.76,0-10.94-3.55-10.94-10.37c0-6.24,4.99-10.99,12.29-10.99c9.7,0,13.78,7.49,13.78,16.56
				c0,9.65-5.42,16.51-14.88,16.51c-3.89,0-7.15-1.3-9.41-3.31L50.01,208.65z M57.79,189.88c-3.65,0-5.62,2.54-5.62,4.8
				c0,3.41,2.83,4.9,5.91,4.9c2.4,0,4.75-1.1,6.24-2.98C64.07,193.53,62.34,189.88,57.79,189.88z"/>
			<path class="st0" d="M81.5,200.01c-3.55-1.2-6.34-3.55-6.34-7.54c0-6,6.38-8.45,12.34-8.45c5.91,0,12.34,2.45,12.34,8.45
				c0,3.98-2.83,6.34-6.38,7.54c3.84,1.34,6.91,4.32,6.91,8.21c0,5.95-6.14,8.88-12.87,8.88s-12.87-2.88-12.87-8.88
				C74.63,204.33,77.66,201.35,81.5,200.01z M87.5,203.03c-2.02,0.24-5.95,1.58-5.95,4.37c0,2.35,2.59,3.84,5.95,3.84
				c3.26,0,5.95-1.49,5.95-3.84C93.45,204.62,89.46,203.27,87.5,203.03z M87.5,189.88c-3.17,0-5.42,1.39-5.42,3.65
				c0,2.5,3.46,3.6,5.42,3.89c1.97-0.29,5.38-1.39,5.38-3.89C92.87,191.27,90.62,189.88,87.5,189.88z"/>
			<path class="st0" d="M111.4,184.02c4.95,0,8.16,3.55,8.16,8.06c0,4.46-3.22,7.87-8.16,7.87c-4.9,0-8.11-3.41-8.11-7.87
				C103.29,187.58,106.5,184.02,111.4,184.02z M111.4,187.82c-2.16,0-3.79,1.58-3.79,4.27c0,2.5,1.63,4.13,3.79,4.13
				c2.21,0,3.79-1.63,3.79-4.13C115.19,189.4,113.61,187.82,111.4,187.82z M108.28,216.52l20.45-32.02h3.65l-20.5,32.02H108.28z
				 M129.02,201.11c4.9,0,8.16,3.55,8.16,8.06c0,4.46-3.26,7.92-8.16,7.92s-8.11-3.46-8.11-7.92
				C120.9,204.67,124.12,201.11,129.02,201.11z M129.02,204.9c-2.21,0-3.79,1.63-3.79,4.27c0,2.59,1.58,4.18,3.79,4.18
				s3.84-1.58,3.84-4.18C132.86,206.54,131.22,204.9,129.02,204.9z"/>
		</g>
	</g>
</g>
</svg>
