<?xml version="1.0" encoding="utf-8"?>
<!-- Generator: Adobe Illustrator 26.0.1, SVG Export Plug-In . SVG Version: 6.00 Build 0)  -->
<svg version="1.1" id="Layer_1" xmlns="http://www.w3.org/2000/svg" xmlns:xlink="http://www.w3.org/1999/xlink" x="0px" y="0px"
	 viewBox="0 0 1282.15 518.26" style="enable-background:new 0 0 1282.15 518.26;" xml:space="preserve">
<style type="text/css">
	.st0{fill:#FFFFFF;}
	.st1{fill:#707070;}
	.st2{fill:#FF6D6A;}
</style>
<g>
	<g>
		<path class="st1" d="M15.68,47.46V9.52H2.03V0.77h37.24v8.75H25.69v37.94H15.68z"/>
		<path class="st1" d="M77.63,47.46v-19.6H55.58v19.6h-9.94V0.77h9.94v18.34h22.05V0.77h10.01v46.69H77.63z"/>
		<path class="st1" d="M96.81,47.46V0.77h33.04v8.54h-23.1v10.15h22.61V28h-22.61v10.85h23.1v8.61H96.81z"/>
		<path class="st1" d="M155.54,47.46V0.77h18.41c14.63,0,24.78,9.31,24.78,23.38s-10.15,23.31-24.78,23.31H155.54z M165.48,38.71
			h8.47c9.24,0,14.63-6.65,14.63-14.56c0-8.26-5.04-14.63-14.63-14.63h-8.47V38.71z"/>
		<path class="st1" d="M205.8,47.46V0.77h9.94v46.69H205.8z"/>
		<path class="st1" d="M247.59,0c9.66,0,15.75,4.69,19.32,10.22l-8.26,4.48c-2.17-3.29-6.16-5.88-11.06-5.88
			c-8.47,0-14.63,6.51-14.63,15.33s6.16,15.33,14.63,15.33c4.27,0,8.05-1.75,10.08-3.57v-5.67h-12.46V21.7h22.26v17.85
			c-4.76,5.32-11.41,8.82-19.88,8.82c-13.65,0-24.85-9.52-24.85-24.22C222.74,9.38,233.94,0,247.59,0z"/>
		<path class="st1" d="M275.38,47.46V0.77h9.94v46.69H275.38z"/>
		<path class="st1" d="M305.34,47.46V9.52h-13.65V0.77h37.24v8.75h-13.58v37.94H305.34z"/>
		<path class="st1" d="M363.51,47.46l-2.94-8.05h-20.86l-2.94,8.05h-10.92l18.06-46.69h12.46l17.99,46.69H363.51z M350.14,9.38
			l-7.77,21.42h15.47L350.14,9.38z"/>
		<path class="st1" d="M378.69,47.46V0.77h9.94v37.94h19.74v8.75H378.69z"/>
		<path class="st1" d="M468.93,47.46l-8.19-32.06l-8.12,32.06h-10.57L428.67,0.77h11.13L448,34.51l8.89-33.74h7.77l8.82,33.74
			l8.12-33.74h11.2l-13.3,46.69H468.93z"/>
		<path class="st1" d="M518.21,0c14.14,0,24.43,10.08,24.43,24.15S532.35,48.3,518.21,48.3c-14.07,0-24.36-10.08-24.36-24.15
			S504.13,0,518.21,0z M518.21,8.82c-8.61,0-14.14,6.58-14.14,15.33c0,8.68,5.53,15.33,14.14,15.33c8.61,0,14.21-6.65,14.21-15.33
			C532.42,15.4,526.82,8.82,518.21,8.82z"/>
		<path class="st1" d="M576.03,47.46l-9.17-16.73h-7.28v16.73h-9.94V0.77h21.84c9.73,0,15.68,6.37,15.68,15.05
			c0,8.26-5.18,12.67-10.22,13.86l10.5,17.78H576.03z M570.01,9.31h-10.43v12.88h10.43c3.99,0,7-2.52,7-6.44S574,9.31,570.01,9.31z"
			/>
		<path class="st1" d="M594.64,47.46V0.77h9.94v37.94h19.74v8.75H594.64z"/>
		<path class="st1" d="M631.25,47.46V0.77h18.41c14.63,0,24.78,9.31,24.78,23.38s-10.15,23.31-24.78,23.31H631.25z M641.19,38.71
			h8.47c9.24,0,14.63-6.65,14.63-14.56c0-8.26-5.04-14.63-14.63-14.63h-8.47V38.71z"/>
	</g>
	<g>
		<path class="st1" d="M782.31,517.35v-46.69h18.41c14.63,0,24.78,9.31,24.78,23.38s-10.15,23.31-24.78,23.31H782.31z
			 M792.25,508.59h8.47c9.24,0,14.63-6.65,14.63-14.56c0-8.26-5.04-14.63-14.63-14.63h-8.47V508.59z"/>
		<path class="st1" d="M832.57,470.65h10.08v27.72c0,6.51,3.57,10.99,10.85,10.99c7.14,0,10.71-4.48,10.71-10.99v-27.72h10.08v28
			c0,11.62-6.65,19.53-20.79,19.53c-14.28,0-20.93-7.98-20.93-19.46V470.65z"/>
		<path class="st1" d="M909.92,517.35l-9.17-16.73h-7.28v16.73h-9.94v-46.69h21.84c9.73,0,15.68,6.37,15.68,15.05
			c0,8.26-5.18,12.67-10.22,13.86l10.5,17.78H909.92z M903.9,479.19h-10.43v12.88h10.43c3.99,0,7-2.52,7-6.44
			S907.89,479.19,903.9,479.19z"/>
		<path class="st1" d="M928.54,517.35v-46.69h9.94v46.69H928.54z"/>
		<path class="st1" d="M979.92,517.35l-22.26-31.36v31.36h-9.94v-46.69h10.22l21.63,30.24v-30.24h9.94v46.69H979.92z"/>
		<path class="st1" d="M1021.36,469.88c9.66,0,15.75,4.69,19.32,10.22l-8.26,4.48c-2.17-3.29-6.16-5.88-11.06-5.88
			c-8.47,0-14.63,6.51-14.63,15.33s6.16,15.33,14.63,15.33c4.27,0,8.05-1.75,10.08-3.57v-5.67h-12.46v-8.54h22.26v17.85
			c-4.76,5.32-11.41,8.82-19.88,8.82c-13.65,0-24.85-9.52-24.85-24.22C996.51,479.26,1007.71,469.88,1021.36,469.88z"/>
		<path class="st1" d="M1064.83,494.03c0-14.35,10.85-24.15,24.5-24.15c10.64,0,16.59,5.6,19.88,11.41l-8.54,4.2
			c-1.96-3.78-6.16-6.79-11.34-6.79c-8.12,0-14.28,6.51-14.28,15.33s6.16,15.33,14.28,15.33c5.18,0,9.38-2.94,11.34-6.79l8.54,4.13
			c-3.36,5.81-9.24,11.48-19.88,11.48C1075.68,518.19,1064.83,508.38,1064.83,494.03z"/>
		<path class="st1" d="M1137.28,469.88c14.14,0,24.43,10.08,24.43,24.15s-10.29,24.15-24.43,24.15c-14.07,0-24.36-10.08-24.36-24.15
			S1123.21,469.88,1137.28,469.88z M1137.28,478.7c-8.61,0-14.14,6.58-14.14,15.33c0,8.68,5.53,15.33,14.14,15.33
			c8.61,0,14.21-6.65,14.21-15.33C1151.49,485.28,1145.89,478.7,1137.28,478.7z"/>
		<path class="st1" d="M1180.4,517.35l-18.06-46.69h11.34l12.95,35.91l12.88-35.91h11.34l-17.99,46.69H1180.4z"/>
		<path class="st1" d="M1215.18,517.35v-46.69h9.94v46.69H1215.18z"/>
		<path class="st1" d="M1234.36,517.35v-46.69h18.41c14.63,0,24.78,9.31,24.78,23.38s-10.15,23.31-24.78,23.31H1234.36z
			 M1244.3,508.59h8.47c9.24,0,14.63-6.65,14.63-14.56c0-8.26-5.04-14.63-14.63-14.63h-8.47V508.59z"/>
	</g>
	<g>
		<path class="st2" d="M98.56,438.79c-19.71,0-36.96-3.78-51.74-11.35s-26.28-18.33-34.5-32.3C4.11,381.18,0,364.64,0,345.51
			c0-24.05,4.11-46.79,12.32-68.2c8.21-21.41,19.54-40.33,33.97-56.76c14.43-16.43,31.09-29.33,49.98-38.72
			c18.89-9.39,39.01-14.08,60.37-14.08c15.02,0,28.07,3.26,39.16,9.77c11.09,6.51,19.71,15.81,25.87,27.9
			c6.16,12.09,9.42,26.52,9.77,43.3h-2.64c-0.82-13.38-3.17-24.79-7.04-34.23c-3.87-9.44-8.8-17.16-14.78-23.14
			s-12.56-10.35-19.71-13.11c-7.16-2.76-14.43-4.14-21.82-4.14c-11.62,0-22.35,3.11-32.21,9.33c-9.86,6.22-18.74,14.64-26.66,25.26
			c-7.92,10.62-14.93,22.65-21.03,36.08c-6.1,13.44-11.18,27.52-15.22,42.24c-4.05,14.73-7.1,29.22-9.15,43.47
			c-2.05,14.26-3.08,27.49-3.08,39.69c0,11.38,1.38,21.82,4.13,31.33c2.76,9.5,7.57,17.1,14.43,22.79c6.86,5.69,16.4,8.54,28.6,8.54
			c13.96,0,27.19-3.31,39.69-9.94c12.5-6.63,23.99-15.6,34.5-26.93c10.5-11.32,19.62-24.02,27.37-38.1h2.64
			c-7.04,14.43-15.99,27.81-26.84,40.13c-10.85,12.32-23.38,22.21-37.58,29.66C130.83,435.07,115.34,438.79,98.56,438.79z
			 M187.97,435.27l-21.12-23.94c5.4-4.69,10.76-9.94,16.1-15.75c5.34-5.81,10.59-12.88,15.75-21.21l8.1-16.54h4.4l-19.36,77.44
			H187.97z M228.8,248.71l-0.53-15.31c-1.53-7.63-3.37-14.4-5.54-20.33c-2.17-5.92-5.25-11.53-9.24-16.81l33.62-24.99h3.87
			l-17.78,77.44H228.8z"/>
		<path class="st2" d="M213.84,435.27v-4.4h126.72v4.4H213.84z M247.28,435.27l61.6-264h54.56l-61.6,264H247.28z M322.96,300.28
			v-2.82h35.2c9.97,0,18.71-1.82,26.22-5.46c7.51-3.64,13.9-8.45,19.18-14.43c5.28-5.98,9.56-12.61,12.85-19.89
			c3.28-7.27,5.69-14.61,7.21-22c1.52-7.39,2.29-14.2,2.29-20.42c0-4.34-0.44-8.83-1.32-13.46c-0.88-4.63-2.58-8.92-5.1-12.85
			c-2.53-3.93-6.16-7.13-10.91-9.59c-4.75-2.46-11-3.7-18.74-3.7H271.92v-4.4h130.24c15.37,0,29.15,1.7,41.36,5.1
			c12.2,3.4,21.85,8.98,28.95,16.72c7.1,7.74,10.65,18.07,10.65,30.98c0,16.43-4.75,30.3-14.26,41.62
			c-9.5,11.32-22.97,19.92-40.39,25.78c-17.42,5.87-37.93,8.8-61.51,8.8H322.96z M430.32,437.91c-12.2,0-21.56-1.91-28.07-5.72
			c-6.51-3.81-11.03-8.98-13.55-15.49c-2.52-6.51-3.76-13.79-3.7-21.82c0.06-8.04,0.59-16.37,1.58-24.99
			c1-8.62,1.67-16.95,2.02-24.99c0.35-8.04-0.38-15.28-2.2-21.74c-1.82-6.45-5.46-11.59-10.91-15.4
			c-5.46-3.81-13.58-5.72-24.38-5.72h-28.16v-2.46h44c18.54,0,33.09,2.35,43.65,7.04c10.56,4.69,18.24,10.97,23.06,18.83
			c4.81,7.86,7.71,16.46,8.71,25.78c1,9.33,1.08,18.66,0.26,27.98c-0.82,9.33-1.58,17.92-2.29,25.78
			c-0.7,7.86-0.35,14.17,1.06,18.92c1.41,4.75,4.93,7.13,10.56,7.13c3.17,0,6.16-0.41,8.98-1.23c2.82-0.82,5.63-1.82,8.45-2.99
			l1.41,4.4c-6.34,2.35-12.64,4.05-18.92,5.1C445.6,437.39,438.41,437.91,430.32,437.91z"/>
		<path class="st2" d="M480.3,435.27v-4.4h77.44v4.4H480.3z M509.17,435.27l155.23-269.1h21.82l33.44,269.1h-58.08L639.4,218.09
			L514.09,435.27H509.17z M562.14,351.32v-4.4h115.28v4.4H562.14z M621.1,435.27v-4.4h123.2v4.4H621.1z"/>
		<path class="st2" d="M750.28,435.27v-4.4l187.09-255.2h-48.4c-16.08,0-29.42,2.44-40.04,7.3c-10.62,4.87-19.42,11.85-26.4,20.94
			c-6.98,9.09-13.11,19.92-18.39,32.47h-4.4l15.31-65.12h190.08v4.4l-187.09,255.2H877c16.07,0,29.3-2.55,39.69-7.66
			s19.15-12.7,26.31-22.79c7.16-10.09,13.9-22.53,20.24-37.31h4.4l-16.72,72.16H750.28z"/>
		<path class="st2" d="M1023.43,175.67v-4.4h122.5v4.4H1023.43z M1035.75,435.27v-4.4h121.44v4.4H1035.75z M1067.43,435.27
			l29.92-132.7l-49.28-131.3h60.9l42.59,124.96l98.21-124.26h5.46L1150.85,303.8l-28.86,131.47H1067.43z M1208.23,175.67v-4.4h73.92
			v4.4H1208.23z"/>
	</g>
	<g>
		<path class="st1" d="M588.61,132.51l-8.19-32.06l-8.12,32.06h-10.57l-13.37-46.69h11.13l8.19,33.74l8.89-33.74h7.77l8.82,33.74
			l8.12-33.74h11.2l-13.3,46.69H588.61z"/>
		<path class="st1" d="M617.17,132.51V85.82h33.04v8.54h-23.1v10.15h22.61v8.54h-22.61v10.85h23.1v8.61H617.17z"/>
		<path class="st1" d="M690.18,132.51l-22.26-31.36v31.36h-9.94V85.82h10.22l21.63,30.24V85.82h9.94v46.69H690.18z"/>
		<path class="st1" d="M719.79,132.51V94.57h-13.65v-8.75h37.24v8.75H729.8v37.94H719.79z"/>
	</g>
</g>
</svg>
