<?xml version="1.0" encoding="utf-8"?>
<!-- Generator: Adobe Illustrator 26.0.1, SVG Export Plug-In . SVG Version: 6.00 Build 0)  -->
<svg version="1.1" id="Layer_1" xmlns="http://www.w3.org/2000/svg" xmlns:xlink="http://www.w3.org/1999/xlink" x="0px" y="0px"
	 viewBox="0 0 1137.26 758.03" style="enable-background:new 0 0 1137.26 758.03;" xml:space="preserve">
<style type="text/css">
	.st0{fill:#FFFFFF;}
</style>
<g>
	<g>
		<g>
			<path class="st0" d="M821.99,259.2l-4.8-18.78l-4.76,18.78h-6.19l-7.83-27.35h6.52l4.8,19.76l5.21-19.76h4.55l5.17,19.76
				l4.76-19.76h6.56l-7.79,27.35H821.99z"/>
			<path class="st0" d="M838.06,233.37c0-1.72,1.44-3.12,3.12-3.12c1.72,0,3.12,1.39,3.12,3.12c0,1.72-1.39,3.12-3.12,3.12
				C839.5,236.49,838.06,235.1,838.06,233.37z M838.6,259.2v-19.8h5.21v19.8H838.6z"/>
			<path class="st0" d="M850,254.28v-10.33h-3.28v-4.55H850v-5.41h5.25v5.41h4.02v4.55h-4.02v8.94c0,1.23,0.66,2.17,1.8,2.17
				c0.78,0,1.52-0.29,1.8-0.57l1.11,3.94c-0.78,0.7-2.17,1.27-4.35,1.27C851.96,259.7,850,257.81,850,254.28z"/>
			<path class="st0" d="M876.24,259.2v-12.05c0-2.75-1.44-3.61-3.69-3.61c-2.01,0-3.61,1.15-4.51,2.34v13.33h-5.21v-27.35h5.21
				v10.13c1.27-1.52,3.73-3.08,6.97-3.08c4.35,0,6.44,2.38,6.44,6.23v14.06H876.24z"/>
		</g>
		<g>
			<path class="st0" d="M559.62,433.48c8.28,0,14.31,5.9,14.31,14.14s-6.03,14.15-14.31,14.15c-8.24,0-14.27-5.9-14.27-14.15
				S551.38,433.48,559.62,433.48z M559.62,438.65c-5.04,0-8.28,3.85-8.28,8.98c0,5.08,3.24,8.98,8.28,8.98s8.32-3.9,8.32-8.98
				C567.94,442.5,564.66,438.65,559.62,438.65z"/>
			<path class="st0" d="M584.3,446.03v15.25h-5.25v-15.25h-3.28v-4.55h3.28v-1.07c0-4.3,2.79-6.89,6.68-6.89
				c1.48,0,2.83,0.33,3.77,0.82l-1.07,3.69c-0.45-0.29-1.07-0.41-1.68-0.41c-1.48,0-2.46,0.98-2.46,2.87v0.98h4.02v4.55H584.3z"/>
			<path class="st0" d="M602.83,456.36v-10.33h-3.28v-4.55h3.28v-5.41h5.25v5.41h4.02v4.55h-4.02v8.94c0,1.23,0.66,2.17,1.8,2.17
				c0.78,0,1.52-0.29,1.8-0.57l1.11,3.94c-0.78,0.7-2.17,1.27-4.35,1.27C604.8,461.77,602.83,459.88,602.83,456.36z"/>
			<path class="st0" d="M629.07,461.28v-12.05c0-2.75-1.43-3.61-3.69-3.61c-2.01,0-3.61,1.15-4.51,2.34v13.33h-5.21v-27.35h5.21
				v10.13c1.27-1.52,3.73-3.08,6.97-3.08c4.35,0,6.44,2.38,6.44,6.23v14.06H629.07z"/>
			<path class="st0" d="M638.17,451.36c0-5.62,3.94-10.37,10.46-10.37c6.56,0,10.5,4.76,10.5,10.37c0,5.66-3.94,10.41-10.5,10.41
				C642.11,461.77,638.17,457.01,638.17,451.36z M653.71,451.36c0-3.08-1.84-5.74-5.08-5.74s-5.04,2.67-5.04,5.74
				c0,3.12,1.8,5.78,5.04,5.78S653.71,454.47,653.71,451.36z"/>
			<path class="st0" d="M663.51,455.05c1.44,1.35,4.39,2.71,6.85,2.71c2.25,0,3.32-0.78,3.32-2.01c0-1.39-1.72-1.89-3.98-2.34
				c-3.4-0.66-7.79-1.48-7.79-6.19c0-3.32,2.91-6.23,8.12-6.23c3.36,0,6.03,1.15,7.95,2.71l-2.05,3.57c-1.19-1.27-3.44-2.3-5.86-2.3
				c-1.89,0-3.12,0.7-3.12,1.85c0,1.23,1.56,1.68,3.77,2.13c3.4,0.66,7.95,1.56,7.95,6.48c0,3.65-3.08,6.36-8.57,6.36
				c-3.45,0-6.77-1.15-8.86-3.08L663.51,455.05z"/>
			<path class="st0" d="M691.51,440.98c5.9,0,9.92,4.43,9.92,10.91v1.15h-14.72c0.33,2.5,2.34,4.59,5.7,4.59
				c1.85,0,4.02-0.74,5.29-1.97l2.3,3.36c-2.01,1.84-5.08,2.75-8.16,2.75c-6.03,0-10.58-4.06-10.58-10.41
				C681.26,445.62,685.49,440.98,691.51,440.98z M686.63,449.51h9.76c-0.12-1.89-1.43-4.39-4.88-4.39
				C688.27,445.12,686.88,447.54,686.63,449.51z"/>
			<path class="st0" d="M728.54,461.28l-5.25-7.63l-2.38,2.54v5.08h-5.21v-27.35h5.21v16.36l7.5-8.81h6.4l-7.83,8.98l8.08,10.82
				H728.54z"/>
			<path class="st0" d="M745.75,440.98c5.9,0,9.92,4.43,9.92,10.91v1.15h-14.72c0.33,2.5,2.34,4.59,5.7,4.59
				c1.85,0,4.02-0.74,5.29-1.97l2.3,3.36c-2.01,1.84-5.08,2.75-8.16,2.75c-6.03,0-10.58-4.06-10.58-10.41
				C735.5,445.62,739.73,440.98,745.75,440.98z M740.88,449.51h9.76c-0.12-1.89-1.43-4.39-4.88-4.39
				C742.52,445.12,741.12,447.54,740.88,449.51z"/>
			<path class="st0" d="M759.53,464.35c0.45,0.21,1.15,0.33,1.64,0.33c1.35,0,2.26-0.37,2.75-1.44l0.74-1.68l-8.04-20.09h5.58
				l5.17,13.78l5.17-13.78h5.62l-9.31,23.04c-1.48,3.73-4.1,4.71-7.5,4.8c-0.62,0-1.93-0.12-2.58-0.29L759.53,464.35z"/>
			<path class="st0" d="M797.87,461.28l-4.18-13.49l-4.18,13.49h-5.58l-6.03-19.8h5.41L787,454.8l4.35-13.32h4.63l4.35,13.32
				l3.69-13.32h5.41l-6.03,19.8H797.87z"/>
			<path class="st0" d="M810.74,451.36c0-5.62,3.94-10.37,10.46-10.37c6.56,0,10.5,4.76,10.5,10.37c0,5.66-3.94,10.41-10.5,10.41
				C814.67,461.77,810.74,457.01,810.74,451.36z M826.28,451.36c0-3.08-1.84-5.74-5.08-5.74c-3.24,0-5.04,2.67-5.04,5.74
				c0,3.12,1.8,5.78,5.04,5.78C824.43,457.14,826.28,454.47,826.28,451.36z"/>
			<path class="st0" d="M835.54,461.28v-19.8h5.21v2.71c1.39-1.76,3.85-3.16,6.31-3.16v5.08c-0.37-0.08-0.86-0.12-1.44-0.12
				c-1.72,0-4.02,0.94-4.88,2.21v13.08H835.54z"/>
			<path class="st0" d="M863.92,461.28v-2.5c-1.56,1.93-3.73,2.99-6.11,2.99c-5,0-8.77-3.77-8.77-10.37
				c0-6.48,3.73-10.41,8.77-10.41c2.34,0,4.55,1.02,6.11,3.03v-10.09h5.25v27.35H863.92z M863.92,447.87
				c-0.9-1.31-2.75-2.25-4.51-2.25c-2.95,0-5,2.34-5,5.78c0,3.4,2.05,5.74,5,5.74c1.76,0,3.61-0.94,4.51-2.26V447.87z"/>
			<path class="st0" d="M884.82,461.28v-19.8h5.21v2.71c1.39-1.76,3.85-3.16,6.31-3.16v5.08c-0.37-0.08-0.86-0.12-1.44-0.12
				c-1.72,0-4.02,0.94-4.88,2.21v13.08H884.82z"/>
			<path class="st0" d="M911.47,461.28v-2.05c-1.35,1.6-3.69,2.54-6.27,2.54c-3.16,0-6.89-2.13-6.89-6.56
				c0-4.63,3.73-6.31,6.89-6.31c2.62,0,4.96,0.82,6.27,2.42v-2.75c0-2.01-1.72-3.32-4.35-3.32c-2.13,0-4.1,0.78-5.78,2.34
				l-1.97-3.48c2.42-2.13,5.54-3.12,8.65-3.12c4.51,0,8.65,1.8,8.65,7.5v12.79H911.47z M911.47,454.06
				c-0.86-1.15-2.5-1.72-4.18-1.72c-2.05,0-3.73,1.11-3.73,2.99c0,1.85,1.68,2.91,3.73,2.91c1.68,0,3.32-0.57,4.18-1.72V454.06z"/>
			<path class="st0" d="M935.21,461.28v-11.97c0-2.75-1.44-3.69-3.65-3.69c-2.05,0-3.65,1.15-4.51,2.34v13.33h-5.21v-19.8h5.21v2.58
				c1.27-1.52,3.69-3.08,6.93-3.08c4.35,0,6.44,2.46,6.44,6.31v13.98H935.21z"/>
			<path class="st0" d="M958.42,461.28l-5.25-7.63l-2.38,2.54v5.08h-5.21v-27.35h5.21v16.36l7.5-8.81h6.4l-7.83,8.98l8.08,10.82
				H958.42z"/>
			<path class="st0" d="M966.99,435.45c0-1.72,1.44-3.12,3.12-3.12c1.72,0,3.12,1.39,3.12,3.12c0,1.72-1.39,3.12-3.12,3.12
				C968.42,438.56,966.99,437.17,966.99,435.45z M967.52,461.28v-19.8h5.21v19.8H967.52z"/>
			<path class="st0" d="M991.26,461.28v-11.97c0-2.75-1.43-3.69-3.65-3.69c-2.05,0-3.65,1.15-4.51,2.34v13.33h-5.21v-19.8h5.21v2.58
				c1.27-1.52,3.69-3.08,6.93-3.08c4.35,0,6.44,2.46,6.44,6.31v13.98H991.26z"/>
			<path class="st0" d="M1003.56,462.59c1.6,1.76,3.69,2.46,6.19,2.46c2.5,0,5.45-1.11,5.45-5v-2.01c-1.56,1.97-3.69,3.12-6.11,3.12
				c-4.96,0-8.73-3.49-8.73-10.09c0-6.48,3.73-10.09,8.73-10.09c2.38,0,4.51,1.02,6.11,3.03v-2.54h5.25v18.45
				c0,7.54-5.82,9.39-10.7,9.39c-3.4,0-6.07-0.78-8.53-2.95L1003.56,462.59z M1015.2,447.87c-0.86-1.31-2.75-2.25-4.47-2.25
				c-2.95,0-5,2.05-5,5.45s2.05,5.45,5,5.45c1.72,0,3.61-0.98,4.47-2.25V447.87z"/>
			<path class="st0" d="M1035.58,435.45c0-1.72,1.44-3.12,3.12-3.12c1.72,0,3.12,1.39,3.12,3.12c0,1.72-1.39,3.12-3.12,3.12
				C1037.01,438.56,1035.58,437.17,1035.58,435.45z M1036.11,461.28v-19.8h5.21v19.8H1036.11z"/>
			<path class="st0" d="M1059.85,461.28v-11.97c0-2.75-1.43-3.69-3.65-3.69c-2.05,0-3.65,1.15-4.51,2.34v13.33h-5.21v-19.8h5.21
				v2.58c1.27-1.52,3.69-3.08,6.93-3.08c4.35,0,6.44,2.46,6.44,6.31v13.98H1059.85z"/>
			<path class="st0" d="M1081.74,456.36v-10.33h-3.28v-4.55h3.28v-5.41h5.25v5.41h4.02v4.55h-4.02v8.94c0,1.23,0.66,2.17,1.8,2.17
				c0.78,0,1.52-0.29,1.8-0.57l1.11,3.94c-0.78,0.7-2.17,1.27-4.35,1.27C1083.71,461.77,1081.74,459.88,1081.74,456.36z"/>
			<path class="st0" d="M1107.98,461.28v-12.05c0-2.75-1.44-3.61-3.69-3.61c-2.01,0-3.61,1.15-4.51,2.34v13.33h-5.21v-27.35h5.21
				v10.13c1.27-1.52,3.73-3.08,6.97-3.08c4.35,0,6.44,2.38,6.44,6.23v14.06H1107.98z"/>
			<path class="st0" d="M1127.34,440.98c5.9,0,9.92,4.43,9.92,10.91v1.15h-14.72c0.33,2.5,2.34,4.59,5.7,4.59
				c1.84,0,4.02-0.74,5.29-1.97l2.3,3.36c-2.01,1.84-5.08,2.75-8.16,2.75c-6.03,0-10.58-4.06-10.58-10.41
				C1117.09,445.62,1121.31,440.98,1127.34,440.98z M1122.46,449.51h9.76c-0.12-1.89-1.44-4.39-4.88-4.39
				C1124.1,445.12,1122.7,447.54,1122.46,449.51z"/>
		</g>
		<g>
			<path class="st0" d="M680.91,505.7v-22.22h-8v-5.12h21.81v5.12h-7.95v22.22H680.91z"/>
			<path class="st0" d="M710.43,477.9c8.28,0,14.31,5.9,14.31,14.14s-6.03,14.15-14.31,14.15c-8.24,0-14.27-5.9-14.27-14.15
				S702.19,477.9,710.43,477.9z M710.43,483.07c-5.04,0-8.28,3.85-8.28,8.98c0,5.08,3.24,8.98,8.28,8.98s8.32-3.9,8.32-8.98
				C718.76,486.92,715.48,483.07,710.43,483.07z"/>
			<path class="st0" d="M728.84,505.7v-27.35h12.79c5.95,0,9.18,4.02,9.18,8.82c0,4.76-3.28,8.73-9.18,8.73h-6.97v9.8H728.84z
				 M740.86,483.36h-6.19v7.54h6.19c2.3,0,4.02-1.48,4.02-3.77C744.87,484.87,743.15,483.36,740.86,483.36z"/>
			<path class="st0" d="M766.07,497.99c1.89,1.97,4.88,3.12,7.54,3.12c3.32,0,5.17-1.44,5.17-3.53c0-2.21-1.68-3.24-5.49-3.24
				c-1.15,0-2.99,0-3.4,0.04v-5.08c0.49,0.04,2.34,0.04,3.4,0.04c3.03,0,5.04-0.98,5.04-3.03c0-2.17-2.21-3.28-5.08-3.28
				c-2.66,0-5.04,1.02-6.97,2.87l-2.87-3.61c2.21-2.5,5.66-4.35,10.46-4.35c6.4,0,10.33,2.87,10.33,7.42c0,3.44-2.95,5.7-5.99,6.23
				c2.79,0.29,6.4,2.46,6.4,6.56c0,4.71-4.22,8.04-10.78,8.04c-5.04,0-8.77-1.93-10.78-4.39L766.07,497.99z"/>
			<path class="st0" d="M799.48,505.7v-27.35h12.79c5.95,0,9.18,4.02,9.18,8.82c0,4.76-3.28,8.73-9.18,8.73h-6.97v9.8H799.48z
				 M811.5,483.36h-6.19v7.54h6.19c2.3,0,4.02-1.48,4.02-3.77C815.52,484.87,813.79,483.36,811.5,483.36z"/>
			<path class="st0" d="M838.02,477.9c8.28,0,14.31,5.9,14.31,14.14s-6.03,14.15-14.31,14.15c-8.24,0-14.27-5.9-14.27-14.15
				S829.78,477.9,838.02,477.9z M838.02,483.07c-5.04,0-8.28,3.85-8.28,8.98c0,5.08,3.24,8.98,8.28,8.98s8.32-3.9,8.32-8.98
				C846.35,486.92,843.07,483.07,838.02,483.07z"/>
			<path class="st0" d="M857.74,497.42c1.93,2.01,4.92,3.69,8.69,3.69c3.2,0,4.76-1.52,4.76-3.08c0-2.05-2.38-2.75-5.54-3.49
				c-4.47-1.02-10.21-2.25-10.21-8.36c0-4.55,3.94-8.24,10.37-8.24c4.35,0,7.95,1.31,10.66,3.81l-3.24,4.26
				c-2.21-2.05-5.17-2.99-7.83-2.99c-2.62,0-4.02,1.15-4.02,2.79c0,1.84,2.3,2.42,5.45,3.16c4.51,1.03,10.25,2.38,10.25,8.45
				c0,5-3.57,8.77-10.95,8.77c-5.25,0-9.02-1.76-11.6-4.35L857.74,497.42z"/>
			<path class="st0" d="M881.03,505.7v-27.35h5.82v27.35H881.03z"/>
			<path class="st0" d="M898.58,505.7v-22.22h-8v-5.12h21.81v5.12h-7.95v22.22H898.58z"/>
			<path class="st0" d="M916.13,505.7v-27.35h5.82v27.35H916.13z"/>
			<path class="st0" d="M940.32,477.9c8.28,0,14.31,5.9,14.31,14.14s-6.03,14.15-14.31,14.15c-8.24,0-14.27-5.9-14.27-14.15
				S932.08,477.9,940.32,477.9z M940.32,483.07c-5.04,0-8.28,3.85-8.28,8.98c0,5.08,3.24,8.98,8.28,8.98s8.32-3.9,8.32-8.98
				C948.64,486.92,945.36,483.07,940.32,483.07z"/>
			<path class="st0" d="M977.59,505.7l-13.04-18.37v18.37h-5.82v-27.35h5.99l12.67,17.71v-17.71h5.82v27.35H977.59z"/>
			<path class="st0" d="M989.93,497.42c1.93,2.01,4.92,3.69,8.69,3.69c3.2,0,4.76-1.52,4.76-3.08c0-2.05-2.38-2.75-5.54-3.49
				c-4.47-1.02-10.21-2.25-10.21-8.36c0-4.55,3.94-8.24,10.37-8.24c4.35,0,7.95,1.31,10.66,3.81l-3.24,4.26
				c-2.21-2.05-5.17-2.99-7.83-2.99c-2.62,0-4.02,1.15-4.02,2.79c0,1.84,2.3,2.42,5.45,3.16c4.51,1.03,10.25,2.38,10.25,8.45
				c0,5-3.57,8.77-10.95,8.77c-5.25,0-9.02-1.76-11.6-4.35L989.93,497.42z"/>
		</g>
		<g>
			<path class="st0" d="M631.19,401.67v-90.03l-20.46,21.02l-15.07-15.81l39.06-39.25h23.06v124.07H631.19z"/>
			<path class="st0" d="M694.24,371.17c6.7,6.14,13.76,9.49,24.74,9.49c19.9,0,31.06-16.93,31.06-35.71v-2.6
				c-5.95,8.37-18.41,16-31.99,16c-22.32,0-42.41-13.76-42.41-40.18c0-24.18,19.35-42.6,47.62-42.6c37.57,0,53.38,29.02,53.38,64.17
				c0,37.39-21.02,63.99-57.66,63.99c-15.07,0-27.71-5.02-36.46-12.83L694.24,371.17z M724.38,298.44
				c-14.14,0-21.76,9.86-21.76,18.6c0,13.21,10.97,18.97,22.88,18.97c9.3,0,18.41-4.28,24.18-11.53
				C748.74,312.58,742.04,298.44,724.38,298.44z"/>
			<path class="st0" d="M789.84,418.78c5.95-3.16,12.83-10.79,14.32-17.3c-0.56,0.19-2.23,0.56-3.53,0.56
				c-7.07,0-12.65-5.58-12.65-13.58c0-8.18,6.7-14.88,14.51-14.88c8.74,0,16.74,6.88,16.74,18.97c0,13.95-7.81,26.41-19.16,34.6
				L789.84,418.78z"/>
			<path class="st0" d="M890.84,401.67V376h-59.34v-20.83l49.29-77.56h36.46v75.15h16V376h-16v25.67H890.84z M890.84,301.04
				l-33.48,51.71h33.48V301.04z"/>
			<path class="st0" d="M975.47,401.67v-90.03l-20.46,21.02l-15.07-15.81L979,277.61h23.06v124.07H975.47z"/>
			<path class="st0" d="M1051.91,401.67v-90.03l-20.46,21.02l-15.07-15.81l39.06-39.25h23.06v124.07H1051.91z"/>
		</g>
	</g>
	<g>
		<g>
			<path class="st0" d="M128.42,27.76l-4.8-18.78l-4.76,18.78h-6.19l-7.83-27.35h6.52l4.8,19.76l5.21-19.76h4.55l5.17,19.76
				l4.76-19.76h6.56l-7.79,27.35H128.42z"/>
			<path class="st0" d="M152.36,7.46c5.9,0,9.92,4.43,9.92,10.91v1.15h-14.72c0.33,2.5,2.34,4.59,5.7,4.59
				c1.85,0,4.02-0.74,5.29-1.97l2.3,3.36c-2.01,1.84-5.08,2.75-8.16,2.75c-6.03,0-10.58-4.06-10.58-10.41
				C142.11,12.09,146.33,7.46,152.36,7.46z M147.48,15.99h9.76c-0.12-1.89-1.43-4.39-4.88-4.39
				C149.12,11.6,147.73,14.02,147.48,15.99z"/>
			<path class="st0" d="M165.52,9.96c1.31-0.7,2.83-2.42,3.16-3.9c-0.12,0.08-0.49,0.16-0.78,0.16c-1.56,0-2.79-1.23-2.79-2.95
				c0-1.8,1.48-3.28,3.2-3.28c1.93,0,3.69,1.52,3.69,4.18c0,3.08-1.72,5.82-4.22,7.63L165.52,9.96z"/>
			<path class="st0" d="M181.35,27.76l-7.96-19.8h5.58l5.17,13.78l5.17-13.78h5.62l-7.95,19.8H181.35z"/>
			<path class="st0" d="M206.23,7.46c5.9,0,9.92,4.43,9.92,10.91v1.15h-14.72c0.33,2.5,2.34,4.59,5.7,4.59
				c1.84,0,4.02-0.74,5.29-1.97l2.3,3.36c-2.01,1.84-5.08,2.75-8.16,2.75c-6.03,0-10.58-4.06-10.58-10.41
				C195.98,12.09,200.21,7.46,206.23,7.46z M201.36,15.99h9.76c-0.12-1.89-1.44-4.39-4.88-4.39C203,11.6,201.6,14.02,201.36,15.99z"
				/>
			<path class="st0" d="M243.83,27.76V15.7c0-2.75-1.43-3.61-3.69-3.61c-2.01,0-3.61,1.15-4.51,2.34v13.33h-5.21V0.41h5.21v10.13
				c1.27-1.52,3.73-3.08,6.97-3.08c4.35,0,6.44,2.38,6.44,6.23v14.06H243.83z"/>
			<path class="st0" d="M263.18,7.46c5.9,0,9.92,4.43,9.92,10.91v1.15h-14.72c0.33,2.5,2.34,4.59,5.7,4.59
				c1.84,0,4.02-0.74,5.29-1.97l2.3,3.36c-2.01,1.84-5.08,2.75-8.16,2.75c-6.03,0-10.58-4.06-10.58-10.41
				C252.93,12.09,257.15,7.46,263.18,7.46z M258.3,15.99h9.76c-0.12-1.89-1.43-4.39-4.88-4.39C259.94,11.6,258.55,14.02,258.3,15.99
				z"/>
			<path class="st0" d="M276.88,27.76V0.41h5.21v27.35H276.88z"/>
			<path class="st0" d="M292.46,35.3h-5.21V7.95h5.21v2.5c1.52-1.93,3.69-2.99,6.11-2.99c5.08,0,8.77,3.77,8.77,10.37
				c0,6.6-3.69,10.41-8.77,10.41c-2.34,0-4.51-0.98-6.11-3.03V35.3z M296.92,12.09c-1.68,0-3.61,0.98-4.47,2.25v7.01
				c0.86,1.23,2.79,2.26,4.47,2.26c2.99,0,5-2.34,5-5.78C301.93,14.43,299.92,12.09,296.92,12.09z"/>
			<path class="st0" d="M320.21,7.46c5.9,0,9.92,4.43,9.92,10.91v1.15h-14.72c0.33,2.5,2.34,4.59,5.7,4.59
				c1.85,0,4.02-0.74,5.29-1.97l2.3,3.36c-2.01,1.84-5.08,2.75-8.16,2.75c-6.03,0-10.58-4.06-10.58-10.41
				C309.96,12.09,314.19,7.46,320.21,7.46z M315.33,15.99h9.76c-0.12-1.89-1.43-4.39-4.88-4.39
				C316.97,11.6,315.58,14.02,315.33,15.99z"/>
			<path class="st0" d="M347.52,27.76v-2.5c-1.56,1.93-3.73,2.99-6.11,2.99c-5,0-8.77-3.77-8.77-10.37c0-6.48,3.73-10.41,8.77-10.41
				c2.34,0,4.55,1.02,6.11,3.03V0.41h5.25v27.35H347.52z M347.52,14.35c-0.9-1.31-2.75-2.25-4.51-2.25c-2.95,0-5,2.34-5,5.78
				c0,3.4,2.05,5.74,5,5.74c1.76,0,3.61-0.94,4.51-2.26V14.35z"/>
			<path class="st0" d="M368.43,27.76V7.95h5.21v2.71c1.39-1.76,3.85-3.16,6.31-3.16v5.08c-0.37-0.08-0.86-0.12-1.43-0.12
				c-1.72,0-4.02,0.94-4.88,2.21v13.08H368.43z"/>
			<path class="st0" d="M395.08,27.76v-2.05c-1.35,1.6-3.69,2.54-6.27,2.54c-3.16,0-6.89-2.13-6.89-6.56c0-4.63,3.73-6.31,6.89-6.31
				c2.62,0,4.96,0.82,6.27,2.42v-2.75c0-2.01-1.72-3.32-4.35-3.32c-2.13,0-4.1,0.78-5.78,2.34l-1.97-3.48
				c2.42-2.13,5.54-3.12,8.65-3.12c4.51,0,8.65,1.8,8.65,7.5v12.79H395.08z M395.08,20.54c-0.86-1.15-2.5-1.72-4.18-1.72
				c-2.05,0-3.73,1.11-3.73,2.99c0,1.85,1.68,2.91,3.73,2.91c1.68,0,3.32-0.57,4.18-1.72V20.54z"/>
			<path class="st0" d="M418.82,27.76V15.79c0-2.75-1.44-3.69-3.65-3.69c-2.05,0-3.65,1.15-4.51,2.34v13.33h-5.21V7.95h5.21v2.58
				c1.27-1.52,3.69-3.08,6.93-3.08c4.35,0,6.44,2.46,6.44,6.31v13.98H418.82z"/>
			<path class="st0" d="M442.02,27.76l-5.25-7.63l-2.38,2.54v5.08h-5.21V0.41h5.21v16.36l7.5-8.81h6.4l-7.83,8.98l8.08,10.82H442.02
				z"/>
		</g>
		<g>
			<path class="st0" d="M140.29,246.17L132,235.22l-2.13,2.54v8.41h-5.82v-27.35h5.82v12.22l9.68-12.22h7.17l-10.87,12.83
				l11.6,14.51H140.29z"/>
			<path class="st0" d="M157.88,225.88c5.9,0,9.92,4.43,9.92,10.91v1.15h-14.72c0.33,2.5,2.34,4.59,5.7,4.59
				c1.84,0,4.02-0.74,5.29-1.97l2.3,3.36c-2.01,1.84-5.08,2.75-8.16,2.75c-6.03,0-10.58-4.06-10.58-10.41
				C147.62,230.51,151.85,225.88,157.88,225.88z M153,234.4h9.76c-0.12-1.89-1.43-4.39-4.88-4.39
				C154.64,230.02,153.24,232.44,153,234.4z"/>
			<path class="st0" d="M171.65,249.25c0.45,0.21,1.15,0.33,1.64,0.33c1.35,0,2.25-0.37,2.75-1.44l0.74-1.68l-8.04-20.09h5.58
				l5.17,13.78l5.17-13.78h5.62l-9.31,23.04c-1.48,3.73-4.1,4.71-7.5,4.8c-0.62,0-1.93-0.12-2.58-0.29L171.65,249.25z"/>
			<path class="st0" d="M209.99,246.17l-4.18-13.49l-4.18,13.49h-5.58l-6.03-19.8h5.41l3.69,13.32l4.35-13.32h4.63l4.35,13.32
				l3.69-13.32h5.41l-6.03,19.8H209.99z"/>
			<path class="st0" d="M222.86,236.25c0-5.62,3.94-10.37,10.46-10.37c6.56,0,10.5,4.76,10.5,10.37c0,5.66-3.94,10.41-10.5,10.41
				C226.79,246.66,222.86,241.91,222.86,236.25z M238.4,236.25c0-3.08-1.85-5.74-5.08-5.74c-3.24,0-5.04,2.67-5.04,5.74
				c0,3.12,1.8,5.78,5.04,5.78C236.55,242.03,238.4,239.37,238.4,236.25z"/>
			<path class="st0" d="M247.66,246.17v-19.8h5.21v2.71c1.39-1.76,3.85-3.16,6.31-3.16V231c-0.37-0.08-0.86-0.12-1.43-0.12
				c-1.72,0-4.02,0.94-4.88,2.21v13.08H247.66z"/>
			<path class="st0" d="M276.04,246.17v-2.5c-1.56,1.93-3.73,2.99-6.11,2.99c-5,0-8.77-3.77-8.77-10.37
				c0-6.48,3.73-10.41,8.77-10.41c2.34,0,4.55,1.02,6.11,3.03v-10.09h5.25v27.35H276.04z M276.04,232.76
				c-0.9-1.31-2.75-2.25-4.51-2.25c-2.95,0-5,2.34-5,5.78c0,3.4,2.05,5.74,5,5.74c1.76,0,3.61-0.94,4.51-2.26V232.76z"/>
			<path class="st0" d="M286.98,239.94c1.43,1.35,4.39,2.71,6.85,2.71c2.26,0,3.32-0.78,3.32-2.01c0-1.39-1.72-1.89-3.98-2.34
				c-3.4-0.66-7.79-1.48-7.79-6.19c0-3.32,2.91-6.23,8.12-6.23c3.36,0,6.03,1.15,7.95,2.71l-2.05,3.57c-1.19-1.27-3.44-2.3-5.86-2.3
				c-1.89,0-3.12,0.7-3.12,1.85c0,1.23,1.56,1.68,3.77,2.13c3.4,0.66,7.96,1.56,7.96,6.48c0,3.65-3.08,6.36-8.57,6.36
				c-3.44,0-6.76-1.15-8.86-3.08L286.98,239.94z"/>
			<path class="st0" d="M315.23,236.25c0-5.62,3.94-10.37,10.46-10.37c6.56,0,10.5,4.76,10.5,10.37c0,5.66-3.94,10.41-10.5,10.41
				C319.17,246.66,315.23,241.91,315.23,236.25z M330.77,236.25c0-3.08-1.84-5.74-5.08-5.74s-5.04,2.67-5.04,5.74
				c0,3.12,1.8,5.78,5.04,5.78S330.77,239.37,330.77,236.25z"/>
			<path class="st0" d="M353.4,246.17V234.2c0-2.75-1.43-3.69-3.65-3.69c-2.05,0-3.65,1.15-4.51,2.34v13.33h-5.21v-19.8h5.21v2.58
				c1.27-1.52,3.69-3.08,6.93-3.08c4.35,0,6.44,2.46,6.44,6.31v13.98H353.4z"/>
			<path class="st0" d="M375.29,241.25v-10.33h-3.28v-4.55h3.28v-5.41h5.25v5.41h4.02v4.55h-4.02v8.94c0,1.23,0.66,2.17,1.8,2.17
				c0.78,0,1.52-0.29,1.8-0.57l1.11,3.94c-0.78,0.7-2.17,1.27-4.35,1.27C377.26,246.66,375.29,244.78,375.29,241.25z"/>
			<path class="st0" d="M401.54,246.17v-12.05c0-2.75-1.44-3.61-3.69-3.61c-2.01,0-3.61,1.15-4.51,2.34v13.33h-5.21v-27.35h5.21
				v10.13c1.27-1.52,3.73-3.08,6.97-3.08c4.35,0,6.44,2.38,6.44,6.23v14.06H401.54z"/>
			<path class="st0" d="M420.89,225.88c5.9,0,9.92,4.43,9.92,10.91v1.15h-14.72c0.33,2.5,2.34,4.59,5.7,4.59
				c1.84,0,4.02-0.74,5.29-1.97l2.3,3.36c-2.01,1.84-5.08,2.75-8.16,2.75c-6.03,0-10.58-4.06-10.58-10.41
				C410.64,230.51,414.86,225.88,420.89,225.88z M416.01,234.4h9.76c-0.12-1.89-1.43-4.39-4.88-4.39
				C417.65,230.02,416.25,232.44,416.01,234.4z"/>
		</g>
		<g>
			<path class="st0" d="M74.44,291.59v-19.84l-4.51,4.63l-3.32-3.49l8.61-8.65h5.08v27.35H74.44z"/>
			<path class="st0" d="M87.03,283.31c1.93,2.01,4.92,3.69,8.69,3.69c3.2,0,4.76-1.52,4.76-3.08c0-2.05-2.38-2.75-5.54-3.49
				c-4.47-1.02-10.21-2.25-10.21-8.36c0-4.55,3.94-8.24,10.37-8.24c4.35,0,7.95,1.31,10.66,3.81l-3.24,4.26
				c-2.21-2.05-5.17-2.99-7.83-2.99c-2.62,0-4.02,1.15-4.02,2.79c0,1.84,2.29,2.42,5.45,3.16c4.51,1.03,10.25,2.38,10.25,8.45
				c0,5-3.57,8.77-10.95,8.77c-5.25,0-9.02-1.76-11.6-4.35L87.03,283.31z"/>
			<path class="st0" d="M116.34,291.59v-22.22h-8v-5.12h21.81v5.12h-7.95v22.22H116.34z"/>
			<path class="st0" d="M144.38,291.59v-27.35h12.79c5.95,0,9.18,4.02,9.18,8.82c0,4.76-3.28,8.73-9.18,8.73h-6.97v9.8H144.38z
				 M156.4,269.25h-6.19v7.54h6.19c2.29,0,4.02-1.48,4.02-3.77C160.42,270.77,158.69,269.25,156.4,269.25z"/>
			<path class="st0" d="M186.08,291.59l-1.72-4.71h-12.22l-1.72,4.71h-6.4l10.58-27.35h7.3l10.54,27.35H186.08z M178.25,269.29
				l-4.55,12.55h9.06L178.25,269.29z"/>
			<path class="st0" d="M206.83,263.8c5.66,0,9.22,2.75,11.32,5.99l-4.84,2.62c-1.27-1.93-3.61-3.44-6.48-3.44
				c-4.96,0-8.57,3.81-8.57,8.98s3.61,8.98,8.57,8.98c2.5,0,4.71-1.03,5.9-2.09v-3.32h-7.3v-5h13.04v10.46
				c-2.79,3.12-6.68,5.17-11.64,5.17c-8,0-14.55-5.58-14.55-14.19C192.27,269.29,198.83,263.8,206.83,263.8z"/>
			<path class="st0" d="M223.1,291.59v-27.35h19.35v5h-13.53v5.94h13.24v5h-13.24v6.36h13.53v5.04H223.1z"/>
			<path class="st0" d="M270.46,263.8c8.28,0,14.31,5.9,14.31,14.14s-6.03,14.15-14.31,14.15c-8.24,0-14.27-5.9-14.27-14.15
				S262.22,263.8,270.46,263.8z M270.46,268.96c-5.04,0-8.28,3.85-8.28,8.98c0,5.08,3.24,8.98,8.28,8.98s8.32-3.9,8.32-8.98
				C278.78,272.82,275.5,268.96,270.46,268.96z"/>
			<path class="st0" d="M288.87,291.59v-27.35h19.35v5h-13.53v5.94h13.24v5h-13.24v11.4H288.87z"/>
			<path class="st0" d="M336.02,263.8c5.66,0,9.22,2.75,11.32,5.99l-4.84,2.62c-1.27-1.93-3.61-3.44-6.48-3.44
				c-4.96,0-8.57,3.81-8.57,8.98s3.61,8.98,8.57,8.98c2.5,0,4.71-1.03,5.9-2.09v-3.32h-7.3v-5h13.04v10.46
				c-2.79,3.12-6.68,5.17-11.64,5.17c-8,0-14.55-5.58-14.55-14.19C321.46,269.29,328.02,263.8,336.02,263.8z"/>
			<path class="st0" d="M365.25,263.8c8.28,0,14.31,5.9,14.31,14.14s-6.03,14.15-14.31,14.15c-8.24,0-14.27-5.9-14.27-14.15
				S357.01,263.8,365.25,263.8z M365.25,268.96c-5.04,0-8.28,3.85-8.28,8.98c0,5.08,3.24,8.98,8.28,8.98s8.32-3.9,8.32-8.98
				C373.57,272.82,370.29,268.96,365.25,268.96z"/>
			<path class="st0" d="M396.62,263.8c8.28,0,14.31,5.9,14.31,14.14s-6.03,14.15-14.31,14.15c-8.24,0-14.27-5.9-14.27-14.15
				S388.37,263.8,396.62,263.8z M396.62,268.96c-5.04,0-8.28,3.85-8.28,8.98c0,5.08,3.24,8.98,8.28,8.98s8.32-3.9,8.32-8.98
				C404.94,272.82,401.66,268.96,396.62,268.96z"/>
			<path class="st0" d="M428.27,263.8c5.66,0,9.22,2.75,11.32,5.99l-4.84,2.62c-1.27-1.93-3.61-3.44-6.48-3.44
				c-4.96,0-8.57,3.81-8.57,8.98s3.61,8.98,8.57,8.98c2.5,0,4.71-1.03,5.9-2.09v-3.32h-7.3v-5h13.04v10.46
				c-2.79,3.12-6.68,5.17-11.64,5.17c-8,0-14.56-5.58-14.56-14.19C413.71,269.29,420.27,263.8,428.27,263.8z"/>
			<path class="st0" d="M444.54,291.59v-27.35h5.82v22.22h11.56v5.12H444.54z"/>
			<path class="st0" d="M465.99,291.59v-27.35h19.35v5h-13.53v5.94h13.24v5h-13.24v6.36h13.53v5.04H465.99z"/>
		</g>
		<g>
			<path class="st0" d="M59.34,176.39v-25.67H0v-20.83l49.29-77.56h36.46v75.15h16v23.25h-16v25.67H59.34z M59.34,75.76
				l-33.48,51.71h33.48V75.76z"/>
			<path class="st0" d="M143.96,176.39V86.37l-20.46,21.02l-15.07-15.81l39.06-39.25h23.06v124.07H143.96z"/>
			<path class="st0" d="M193.44,193.5c5.95-3.16,12.83-10.79,14.32-17.3c-0.56,0.19-2.23,0.56-3.54,0.56
				c-7.07,0-12.65-5.58-12.65-13.58c0-8.18,6.7-14.88,14.51-14.88c8.74,0,16.74,6.88,16.74,18.97c0,13.95-7.81,26.41-19.16,34.6
				L193.44,193.5z"/>
			<path class="st0" d="M254.07,142.17c8.56,8.74,20.09,13.39,33.11,13.39c14.69,0,23.06-8.37,23.06-18.6
				c0-11.35-8.18-18.97-22.32-18.97c-10.23,0-18.6,3.16-26.04,10.23l-18.41-5.02V52.33h85.19v22.69h-59.34v31.06
				c6.51-5.77,16.55-10.23,27.9-10.23c21.02,0,39.8,14.88,39.8,39.99c0,26.23-19.72,42.78-49.66,42.78c-21.58,0-37.2-7.07-47.8-18.6
				L254.07,142.17z"/>
			<path class="st0" d="M367.16,142.17c8.56,8.74,20.09,13.39,33.11,13.39c14.69,0,23.06-8.37,23.06-18.6
				c0-11.35-8.18-18.97-22.32-18.97c-10.23,0-18.6,3.16-26.04,10.23l-18.41-5.02V52.33h85.19v22.69h-59.34v31.06
				c6.51-5.77,16.55-10.23,27.9-10.23c21.02,0,39.8,14.88,39.8,39.99c0,26.23-19.72,42.78-49.66,42.78c-21.58,0-37.2-7.07-47.8-18.6
				L367.16,142.17z"/>
			<path class="st0" d="M479.13,176.39l44.46-100.81h-62.5V52.33h93.19v18.42l-46.13,105.65H479.13z"/>
		</g>
	</g>
	<g>
		<g>
			<path class="st0" d="M198.29,690.38c6.46,0,11.17,4.61,11.17,11.04s-4.7,11.04-11.17,11.04c-6.43,0-11.13-4.61-11.13-11.04
				S191.86,690.38,198.29,690.38z M198.29,694.41c-3.94,0-6.46,3.01-6.46,7.01c0,3.97,2.53,7.01,6.46,7.01s6.5-3.04,6.5-7.01
				C204.79,697.42,202.23,694.41,198.29,694.41z"/>
			<path class="st0" d="M217.56,700.17v11.9h-4.1v-11.9h-2.56v-3.55h2.56v-0.83c0-3.36,2.18-5.38,5.22-5.38
				c1.15,0,2.21,0.26,2.94,0.64l-0.83,2.88c-0.35-0.22-0.83-0.32-1.31-0.32c-1.15,0-1.92,0.77-1.92,2.24v0.77h3.14v3.55H217.56z"/>
			<path class="st0" d="M240.5,712.07v-1.6c-1.06,1.25-2.88,1.98-4.9,1.98c-2.46,0-5.38-1.66-5.38-5.12c0-3.62,2.91-4.93,5.38-4.93
				c2.05,0,3.87,0.64,4.9,1.89v-2.14c0-1.57-1.34-2.59-3.39-2.59c-1.66,0-3.2,0.61-4.51,1.82l-1.54-2.72
				c1.89-1.66,4.32-2.43,6.75-2.43c3.52,0,6.75,1.41,6.75,5.86v9.98H240.5z M240.5,706.44c-0.67-0.9-1.95-1.34-3.26-1.34
				c-1.6,0-2.91,0.86-2.91,2.34c0,1.44,1.31,2.27,2.91,2.27c1.31,0,2.59-0.45,3.26-1.34V706.44z"/>
			<path class="st0" d="M248.6,712.07v-21.34h4.06v21.34H248.6z"/>
			<path class="st0" d="M256.69,712.07v-21.34h4.06v21.34H256.69z"/>
			<path class="st0" d="M271.99,704.33c0-4.38,3.07-8.1,8.16-8.1c5.12,0,8.19,3.71,8.19,8.1c0,4.42-3.07,8.13-8.19,8.13
				C275.06,712.46,271.99,708.74,271.99,704.33z M284.12,704.33c0-2.4-1.44-4.48-3.97-4.48s-3.94,2.08-3.94,4.48
				c0,2.43,1.41,4.51,3.94,4.51S284.12,706.76,284.12,704.33z"/>
			<path class="st0" d="M301.78,712.07v-1.95c-1.06,1.18-2.91,2.34-5.44,2.34c-3.39,0-4.99-1.86-4.99-4.86v-10.98h4.06v9.38
				c0,2.14,1.12,2.85,2.85,2.85c1.57,0,2.82-0.86,3.52-1.76v-10.46h4.06v15.46H301.78z"/>
			<path class="st0" d="M309.88,712.07v-15.46h4.06v2.11c1.09-1.38,3.01-2.46,4.93-2.46v3.97c-0.29-0.06-0.67-0.1-1.12-0.1
				c-1.34,0-3.14,0.74-3.81,1.73v10.21H309.88z"/>
			<path class="st0" d="M330.71,705.61c1.5,1.57,3.84,2.88,6.78,2.88c2.5,0,3.71-1.18,3.71-2.4c0-1.6-1.86-2.14-4.32-2.72
				c-3.49-0.8-7.97-1.76-7.97-6.53c0-3.55,3.07-6.43,8.1-6.43c3.39,0,6.21,1.02,8.32,2.98l-2.53,3.33c-1.73-1.6-4.03-2.33-6.11-2.33
				c-2.05,0-3.14,0.9-3.14,2.18c0,1.44,1.79,1.89,4.26,2.46c3.52,0.8,8,1.86,8,6.59c0,3.9-2.78,6.85-8.54,6.85
				c-4.1,0-7.04-1.38-9.06-3.39L330.71,705.61z"/>
			<path class="st0" d="M348.88,712.07v-21.34h15.1v3.9h-10.56v4.64h10.33v3.9h-10.33v4.96h10.56v3.94H348.88z"/>
			<path class="st0" d="M377.65,690.38c6.46,0,11.17,4.61,11.17,11.04s-4.7,11.04-11.17,11.04c-6.43,0-11.13-4.61-11.13-11.04
				S371.22,690.38,377.65,690.38z M377.65,694.41c-3.94,0-6.46,3.01-6.46,7.01c0,3.97,2.53,7.01,6.46,7.01s6.5-3.04,6.5-7.01
				C384.15,697.42,381.59,694.41,377.65,694.41z"/>
			<path class="st0" d="M407.31,696.23c3.17,0,5.09,1.38,6.11,2.82l-2.66,2.46c-0.74-1.06-1.86-1.66-3.26-1.66
				c-2.46,0-4.19,1.79-4.19,4.48c0,2.69,1.73,4.51,4.19,4.51c1.41,0,2.53-0.64,3.26-1.66l2.66,2.46c-1.02,1.44-2.94,2.82-6.11,2.82
				c-4.77,0-8.19-3.36-8.19-8.13C399.12,699.59,402.55,696.23,407.31,696.23z"/>
			<path class="st0" d="M425.36,712.07v-1.6c-1.06,1.25-2.88,1.98-4.9,1.98c-2.46,0-5.38-1.66-5.38-5.12c0-3.62,2.91-4.93,5.38-4.93
				c2.05,0,3.87,0.64,4.9,1.89v-2.14c0-1.57-1.34-2.59-3.39-2.59c-1.66,0-3.2,0.61-4.51,1.82l-1.54-2.72
				c1.89-1.66,4.32-2.43,6.75-2.43c3.52,0,6.75,1.41,6.75,5.86v9.98H425.36z M425.36,706.44c-0.67-0.9-1.95-1.34-3.26-1.34
				c-1.6,0-2.91,0.86-2.91,2.34c0,1.44,1.31,2.27,2.91,2.27c1.31,0,2.59-0.45,3.26-1.34V706.44z"/>
			<path class="st0" d="M452.62,712.07v-9.76c0-1.44-0.64-2.46-2.3-2.46c-1.44,0-2.62,0.96-3.2,1.79v10.43h-4.1v-9.76
				c0-1.44-0.64-2.46-2.3-2.46c-1.41,0-2.59,0.96-3.2,1.82v10.4h-4.06v-15.46h4.06v2.02c0.64-0.93,2.69-2.4,5.06-2.4
				c2.27,0,3.71,1.06,4.29,2.82c0.9-1.41,2.94-2.82,5.31-2.82c2.85,0,4.54,1.5,4.54,4.67v11.17H452.62z"/>
			<path class="st0" d="M464.79,717.96h-4.06v-21.34h4.06v1.95c1.18-1.5,2.88-2.34,4.77-2.34c3.97,0,6.85,2.94,6.85,8.1
				c0,5.15-2.88,8.13-6.85,8.13c-1.82,0-3.52-0.77-4.77-2.37V717.96z M468.27,699.85c-1.31,0-2.82,0.77-3.49,1.76v5.47
				c0.67,0.96,2.18,1.76,3.49,1.76c2.34,0,3.9-1.82,3.9-4.51C472.18,701.67,470.61,699.85,468.27,699.85z"/>
			<path class="st0" d="M488.72,712.07v-1.6c-1.06,1.25-2.88,1.98-4.9,1.98c-2.46,0-5.38-1.66-5.38-5.12c0-3.62,2.91-4.93,5.38-4.93
				c2.05,0,3.87,0.64,4.9,1.89v-2.14c0-1.57-1.34-2.59-3.39-2.59c-1.66,0-3.2,0.61-4.51,1.82l-1.54-2.72
				c1.89-1.66,4.32-2.43,6.75-2.43c3.52,0,6.75,1.41,6.75,5.86v9.98H488.72z M488.72,706.44c-0.67-0.9-1.95-1.34-3.26-1.34
				c-1.6,0-2.91,0.86-2.91,2.34c0,1.44,1.31,2.27,2.91,2.27c1.31,0,2.59-0.45,3.26-1.34V706.44z"/>
			<path class="st0" d="M496.4,691.91c0-1.34,1.12-2.43,2.43-2.43c1.34,0,2.43,1.09,2.43,2.43s-1.09,2.43-2.43,2.43
				C497.52,694.34,496.4,693.26,496.4,691.91z M496.82,712.07v-15.46h4.06v15.46H496.82z"/>
			<path class="st0" d="M506.42,713.09c1.25,1.38,2.88,1.92,4.83,1.92c1.95,0,4.25-0.86,4.25-3.9v-1.57
				c-1.22,1.54-2.88,2.43-4.77,2.43c-3.87,0-6.82-2.72-6.82-7.87c0-5.06,2.91-7.87,6.82-7.87c1.86,0,3.52,0.8,4.77,2.37v-1.98h4.1
				v14.4c0,5.89-4.54,7.33-8.35,7.33c-2.66,0-4.74-0.61-6.66-2.3L506.42,713.09z M515.5,701.61c-0.67-1.02-2.14-1.76-3.49-1.76
				c-2.3,0-3.9,1.6-3.9,4.25c0,2.66,1.6,4.26,3.9,4.26c1.34,0,2.82-0.77,3.49-1.76V701.61z"/>
			<path class="st0" d="M534.06,712.07v-9.34c0-2.14-1.12-2.88-2.85-2.88c-1.6,0-2.85,0.9-3.52,1.82v10.4h-4.06v-15.46h4.06v2.02
				c0.99-1.18,2.88-2.4,5.41-2.4c3.39,0,5.02,1.92,5.02,4.93v10.91H534.06z"/>
			<path class="st0" d="M542.58,707.21c1.12,1.06,3.42,2.11,5.34,2.11c1.76,0,2.59-0.61,2.59-1.57c0-1.09-1.34-1.47-3.1-1.82
				c-2.66-0.51-6.08-1.15-6.08-4.83c0-2.59,2.27-4.86,6.33-4.86c2.62,0,4.7,0.9,6.21,2.11l-1.6,2.78c-0.93-0.99-2.69-1.79-4.58-1.79
				c-1.47,0-2.43,0.54-2.43,1.44c0,0.96,1.21,1.31,2.94,1.66c2.66,0.51,6.21,1.22,6.21,5.06c0,2.85-2.4,4.96-6.69,4.96
				c-2.69,0-5.28-0.9-6.91-2.4L542.58,707.21z"/>
		</g>
		<g>
			<path class="st0" d="M158.18,757.49v-11.48h-12.92v11.48h-5.82v-27.35h5.82v10.74h12.92v-10.74h5.86v27.35H158.18z"/>
			<path class="st0" d="M169.41,757.49v-27.35h5.82v27.35H169.41z"/>
			<path class="st0" d="M186.96,757.49v-22.22h-8v-5.12h21.81v5.12h-7.95v22.22H186.96z"/>
			<path class="st0" d="M221.32,757.49v-22.22h-8v-5.12h21.81v5.12h-7.95v22.22H221.32z"/>
			<path class="st0" d="M257.6,757.49v-11.48h-12.92v11.48h-5.82v-27.35h5.82v10.74h12.92v-10.74h5.86v27.35H257.6z"/>
			<path class="st0" d="M268.84,757.49v-27.35h19.35v5h-13.53v5.94h13.24v5h-13.24v6.36h13.53v5.04H268.84z"/>
			<path class="st0" d="M292.74,757.49v-27.35h5.82v27.35H292.74z"/>
			<path class="st0" d="M319.43,757.49l-5.37-9.8h-4.26v9.8h-5.82v-27.35h12.79c5.7,0,9.18,3.73,9.18,8.82
				c0,4.84-3.03,7.42-5.99,8.12l6.15,10.41H319.43z M315.9,735.15h-6.11v7.54h6.11c2.34,0,4.1-1.48,4.1-3.77
				S318.24,735.15,315.9,735.15z"/>
			<path class="st0" d="M354.07,729.7c5.66,0,9.23,2.75,11.32,5.99l-4.84,2.62c-1.27-1.93-3.61-3.44-6.48-3.44
				c-4.96,0-8.57,3.81-8.57,8.98s3.61,8.98,8.57,8.98c2.5,0,4.71-1.03,5.9-2.09v-3.32h-7.3v-5h13.04v10.46
				c-2.79,3.12-6.68,5.17-11.64,5.17c-8,0-14.56-5.58-14.56-14.19C339.52,735.19,346.08,729.7,354.07,729.7z"/>
			<path class="st0" d="M370.35,730.15h5.9v16.24c0,3.81,2.09,6.44,6.36,6.44c4.18,0,6.27-2.62,6.27-6.44v-16.24h5.9v16.4
				c0,6.81-3.89,11.44-12.18,11.44c-8.37,0-12.26-4.67-12.26-11.4V730.15z"/>
			<path class="st0" d="M417.99,757.49l-1.72-4.71h-12.22l-1.72,4.71h-6.4l10.58-27.35h7.3l10.54,27.35H417.99z M410.16,735.19
				l-4.55,12.55h9.06L410.16,735.19z"/>
			<path class="st0" d="M442.35,757.49l-5.37-9.8h-4.26v9.8h-5.82v-27.35h12.79c5.7,0,9.18,3.73,9.18,8.82
				c0,4.84-3.03,7.42-5.99,8.12l6.15,10.41H442.35z M438.82,735.15h-6.11v7.54h6.11c2.34,0,4.1-1.48,4.1-3.77
				S441.16,735.15,438.82,735.15z"/>
			<path class="st0" d="M472.4,757.49l-1.72-4.71h-12.22l-1.72,4.71h-6.4l10.58-27.35h7.3l10.54,27.35H472.4z M464.57,735.19
				l-4.55,12.55h9.06L464.57,735.19z"/>
			<path class="st0" d="M500.15,757.49l-13.04-18.37v18.37h-5.82v-27.35h5.99l12.67,17.71v-17.71h5.82v27.35H500.15z"/>
			<path class="st0" d="M517.5,757.49v-22.22h-8v-5.12h21.81v5.12h-7.95v22.22H517.5z"/>
			<path class="st0" d="M535.04,757.49v-27.35h19.35v5h-13.53v5.94h13.24v5h-13.24v6.36h13.53v5.04H535.04z"/>
			<path class="st0" d="M558.95,757.49v-27.35h19.35v5h-13.53v5.94h13.24v5h-13.24v6.36h13.53v5.04H558.95z"/>
			<path class="st0" d="M584.16,749.21c1.93,2.01,4.92,3.69,8.69,3.69c3.2,0,4.76-1.52,4.76-3.08c0-2.05-2.38-2.75-5.54-3.49
				c-4.47-1.02-10.21-2.25-10.21-8.36c0-4.55,3.94-8.24,10.37-8.24c4.35,0,7.95,1.31,10.66,3.81l-3.24,4.26
				c-2.21-2.05-5.17-2.99-7.83-2.99c-2.62,0-4.02,1.15-4.02,2.79c0,1.84,2.3,2.42,5.45,3.16c4.51,1.03,10.25,2.38,10.25,8.45
				c0,5-3.57,8.77-10.95,8.77c-5.25,0-9.02-1.76-11.6-4.35L584.16,749.21z"/>
		</g>
		<g>
			<path class="st0" d="M211.62,634.3c6.7,6.14,13.76,9.49,24.74,9.49c19.9,0,31.06-16.93,31.06-35.71v-2.6
				c-5.95,8.37-18.41,16-31.99,16c-22.32,0-42.41-13.76-42.41-40.18c0-24.18,19.34-42.6,47.62-42.6c37.57,0,53.38,29.02,53.38,64.17
				c0,37.39-21.02,63.99-57.66,63.99c-15.07,0-27.71-5.02-36.46-12.83L211.62,634.3z M241.75,561.57c-14.14,0-21.76,9.86-21.76,18.6
				c0,13.21,10.97,18.97,22.88,18.97c9.3,0,18.42-4.28,24.18-11.53C266.12,575.71,259.42,561.57,241.75,561.57z"/>
			<path class="st0" d="M333.63,600.82c-13.76-4.65-24.55-13.76-24.55-29.2c0-23.25,24.74-32.74,47.8-32.74
				c22.88,0,47.8,9.49,47.8,32.74c0,15.44-10.97,24.55-24.74,29.2c14.88,5.21,26.79,16.74,26.79,31.81
				c0,23.06-23.81,34.41-49.85,34.41c-26.04,0-49.85-11.16-49.85-34.41C307.04,617.56,318.75,606.03,333.63,600.82z M356.88,612.54
				c-7.81,0.93-23.06,6.14-23.06,16.93c0,9.11,10.04,14.88,23.06,14.88c12.65,0,23.06-5.77,23.06-14.88
				C379.95,618.67,364.51,613.47,356.88,612.54z M356.88,561.57c-12.28,0-21.02,5.39-21.02,14.14c0,9.67,13.39,13.95,21.02,15.07
				c7.63-1.12,20.83-5.39,20.83-15.07C377.72,566.96,368.98,561.57,356.88,561.57z"/>
			<path class="st0" d="M449.51,538.88c19.16,0,31.62,13.76,31.62,31.25c0,17.3-12.46,30.5-31.62,30.5
				c-18.97,0-31.44-13.21-31.44-30.5C418.08,552.64,430.54,538.88,449.51,538.88z M449.51,553.57c-8.37,0-14.69,6.14-14.69,16.55
				c0,9.67,6.32,16,14.69,16c8.56,0,14.69-6.32,14.69-16C464.21,559.71,458.07,553.57,449.51,553.57z M437.42,664.8l79.24-124.07
				h14.14L451.37,664.8H437.42z M517.77,605.1c18.97,0,31.62,13.76,31.62,31.25c0,17.3-12.65,30.69-31.62,30.69
				c-18.97,0-31.44-13.39-31.44-30.69C486.34,618.86,498.8,605.1,517.77,605.1z M517.77,619.79c-8.56,0-14.69,6.32-14.69,16.55
				c0,10.04,6.14,16.18,14.69,16.18c8.56,0,14.88-6.14,14.88-16.18C532.65,626.11,526.33,619.79,517.77,619.79z"/>
		</g>
	</g>
</g>
</svg>
